<?xml version="1.0" encoding="utf-8"?>
<!-- Generator: Adobe Illustrator 16.0.0, SVG Export Plug-In . SVG Version: 6.00 Build 0)  -->
<!DOCTYPE svg PUBLIC "-//W3C//DTD SVG 1.1//EN" "http://www.w3.org/Graphics/SVG/1.1/DTD/svg11.dtd">
<svg version="1.1" id="Layer_1" xmlns="http://www.w3.org/2000/svg" xmlns:xlink="http://www.w3.org/1999/xlink" x="0px" y="0px"
	 width="31px" height="21px" viewBox="0 0 31 21" enable-background="new 0 0 31 21" xml:space="preserve">
<rect fill="#3B4443" width="31" height="21"/>
<g>
	<path fill="#FFFFFF" d="M9.414,12.755v-0.056c-0.336-0.21-0.602-0.574-0.602-1.106c0-0.574,0.393-1.022,0.742-1.261v-0.057
		C9.105,9.911,8.672,9.253,8.672,8.44c0-1.484,1.178-2.423,2.564-2.423c0.377,0,0.713,0.07,0.965,0.168h2.367v0.883h-1.4
		c0.322,0.308,0.561,0.826,0.561,1.4c0,1.457-1.105,2.367-2.492,2.367c-0.338,0-0.715-0.084-1.023-0.238
		c-0.238,0.21-0.434,0.435-0.434,0.812c0,0.435,0.279,0.742,1.203,0.742h1.318c1.582,0,2.381,0.49,2.381,1.625
		c0,1.261-1.332,2.354-3.445,2.354c-1.668,0-2.816-0.658-2.816-1.835C8.42,13.722,8.799,13.175,9.414,12.755z M11.404,15.332
		c1.303,0,2.156-0.672,2.156-1.387c0-0.63-0.49-0.84-1.373-0.84h-1.176c-0.266,0-0.588-0.028-0.883-0.112
		c-0.49,0.351-0.701,0.757-0.701,1.148C9.428,14.87,10.17,15.332,11.404,15.332z M12.678,8.44c0-0.994-0.645-1.583-1.441-1.583
		c-0.799,0-1.443,0.589-1.443,1.583c0,0.995,0.658,1.625,1.443,1.625C12.02,10.065,12.678,9.436,12.678,8.44z"/>
	<path fill="#FFFFFF" d="M19.494,6.018c1.668,0,3.152,1.303,3.152,3.586c0,2.255-1.484,3.558-3.152,3.558
		c-1.666,0-3.15-1.303-3.15-3.558C16.344,7.32,17.828,6.018,19.494,6.018z M19.494,12.209c1.178,0,1.961-1.051,1.961-2.605
		c0-1.569-0.783-2.634-1.961-2.634c-1.162,0-1.961,1.064-1.961,2.634C17.533,11.158,18.332,12.209,19.494,12.209z"/>
</g>
</svg>
