<?xml version="1.0" encoding="utf-8"?>
<!-- Generator: Adobe Illustrator 16.0.0, SVG Export Plug-In . SVG Version: 6.00 Build 0)  -->
<!DOCTYPE svg PUBLIC "-//W3C//DTD SVG 1.1//EN" "http://www.w3.org/Graphics/SVG/1.1/DTD/svg11.dtd">
<svg version="1.1" xmlns="http://www.w3.org/2000/svg" xmlns:xlink="http://www.w3.org/1999/xlink" x="0px" y="0px" width="408px"
	 height="213px" viewBox="0 0 408 213" enable-background="new 0 0 408 213" xml:space="preserve">
<g id="Background">
</g>
<g id="UID_background">
</g>
<g id="UID">
	<g>
		<rect fill="#222C2B" width="408" height="213"/>
	</g>
	<g>
		<path fill="#FFFFFF" d="M30.012,27.115c0-0.867-0.295-1.709-1.402-1.709c-0.797,0-1.498,0.365-2.029,0.729l-0.463-0.798
			c0.631-0.406,1.582-0.882,2.676-0.882c1.666,0,2.367,1.105,2.367,2.801v4.174h-0.953l-0.098-0.812H30.08
			c-0.658,0.533-1.414,0.98-2.254,0.98c-1.148,0-2.004-0.714-2.004-1.933C25.822,28.18,27.111,27.438,30.012,27.115z M28.148,30.674
			c0.658,0,1.205-0.322,1.863-0.91v-1.892c-2.283,0.28-3.055,0.841-3.055,1.709C26.957,30.352,27.477,30.674,28.148,30.674z"/>
		<path fill="#FFFFFF" d="M34.166,22.479c0-0.448,0.352-0.743,0.799-0.743c0.449,0,0.799,0.295,0.799,0.743
			c0,0.435-0.35,0.742-0.799,0.742C34.518,23.222,34.166,22.914,34.166,22.479z M34.377,24.623h1.148v6.807h-1.148V24.623z"/>
		<path fill="#FFFFFF" d="M38.871,24.623h0.953l0.098,1.232h0.041c0.463-0.855,1.164-1.4,1.934-1.4c0.295,0,0.504,0.041,0.729,0.139
			l-0.225,1.01c-0.225-0.07-0.377-0.113-0.658-0.113c-0.574,0-1.26,0.421-1.723,1.57v4.369h-1.148V24.623z"/>
		<path fill="#FFFFFF" d="M49.805,32.004v2.298h-1.148v-9.679h0.953l0.098,0.783h0.041c0.617-0.518,1.373-0.951,2.172-0.951
			c1.75,0,2.689,1.357,2.689,3.473c0,2.312-1.387,3.67-2.941,3.67c-0.631,0-1.262-0.293-1.891-0.783L49.805,32.004z M51.471,30.632
			c1.121,0,1.947-1.022,1.947-2.704c0-1.498-0.504-2.507-1.793-2.507c-0.574,0-1.148,0.322-1.82,0.925v3.572
			C50.422,30.436,51.023,30.632,51.471,30.632z"/>
		<path fill="#FFFFFF" d="M60.123,24.455c1.668,0,3.152,1.303,3.152,3.586c0,2.254-1.484,3.557-3.152,3.557
			c-1.666,0-3.15-1.303-3.15-3.557C56.973,25.758,58.457,24.455,60.123,24.455z M60.123,30.646c1.178,0,1.961-1.051,1.961-2.605
			c0-1.569-0.783-2.635-1.961-2.635c-1.162,0-1.961,1.065-1.961,2.635C58.162,29.596,58.961,30.646,60.123,30.646z"/>
		<path fill="#FFFFFF" d="M66.113,21.457h1.148v8.685c0,0.364,0.154,0.505,0.322,0.505c0.07,0,0.127,0,0.252-0.029l0.154,0.869
			c-0.154,0.07-0.35,0.111-0.658,0.111c-0.867,0-1.219-0.546-1.219-1.54V21.457z"/>
		<path fill="#FFFFFF" d="M70.734,21.457h1.148v8.685c0,0.364,0.154,0.505,0.322,0.505c0.07,0,0.125,0,0.252-0.029l0.154,0.869
			c-0.154,0.07-0.35,0.111-0.658,0.111c-0.869,0-1.219-0.546-1.219-1.54V21.457z"/>
		<path fill="#FFFFFF" d="M75.256,24.623h1.162v4.16c0,1.274,0.379,1.82,1.275,1.82c0.701,0,1.191-0.35,1.836-1.148v-4.832h1.148
			v6.807h-0.953l-0.098-1.064h-0.043c-0.629,0.742-1.303,1.232-2.24,1.232c-1.443,0-2.088-0.924-2.088-2.66V24.623z"/>
		<path fill="#FFFFFF" d="M84.215,25.561h-1.008v-0.868l1.064-0.069l0.141-1.906h0.967v1.906h1.834v0.938h-1.834v3.783
			c0,0.84,0.266,1.316,1.049,1.316c0.238,0,0.547-0.099,0.771-0.183l0.225,0.868c-0.379,0.127-0.842,0.252-1.262,0.252
			c-1.457,0-1.947-0.924-1.947-2.269V25.561z"/>
		<path fill="#FFFFFF" d="M89.592,22.479c0-0.448,0.35-0.743,0.799-0.743c0.447,0,0.797,0.295,0.797,0.743
			c0,0.435-0.35,0.742-0.797,0.742C89.941,23.222,89.592,22.914,89.592,22.479z M89.801,24.623h1.148v6.807h-1.148V24.623z"/>
		<path fill="#FFFFFF" d="M96.943,24.455c1.666,0,3.152,1.303,3.152,3.586c0,2.254-1.486,3.557-3.152,3.557
			c-1.668,0-3.152-1.303-3.152-3.557C93.791,25.758,95.275,24.455,96.943,24.455z M96.943,30.646c1.176,0,1.961-1.051,1.961-2.605
			c0-1.569-0.785-2.635-1.961-2.635c-1.162,0-1.961,1.065-1.961,2.635C94.982,29.596,95.781,30.646,96.943,30.646z"/>
		<path fill="#FFFFFF" d="M102.934,24.623h0.953l0.098,0.98h0.041c0.645-0.645,1.346-1.148,2.283-1.148
			c1.43,0,2.074,0.924,2.074,2.66v4.314h-1.148v-4.16c0-1.274-0.393-1.82-1.289-1.82c-0.701,0-1.178,0.363-1.863,1.051v4.93h-1.148
			V24.623z"/>
		<path fill="#FFFFFF" d="M115.52,27.536c0-2.466,0.686-4.482,1.85-6.359l0.713,0.336c-1.078,1.779-1.609,3.894-1.609,6.023
			c0,2.129,0.531,4.244,1.609,6.022l-0.713,0.337C116.205,32.019,115.52,30.002,115.52,27.536z"/>
		<path fill="#FFFFFF" d="M120.924,22.241h2.814c2.031,0,3.391,0.687,3.391,2.704c0,1.933-1.373,2.843-3.391,2.843h-1.652v3.642
			h-1.162V22.241z M123.6,26.836c1.596,0,2.367-0.588,2.367-1.891c0-1.332-0.785-1.766-2.367-1.766h-1.514v3.656H123.6z"/>
		<path fill="#FFFFFF" d="M130.037,22.241h1.373l1.779,4.931l0.672,1.877h0.057l0.645-1.877l1.764-4.931h1.373v9.188h-1.105v-5.057
			c0-0.812,0.084-1.904,0.154-2.717h-0.057l-0.742,2.045l-1.766,4.805h-0.658l-1.779-4.805l-0.729-2.045h-0.055
			c0.055,0.812,0.152,1.904,0.152,2.717v5.057h-1.078V22.241z"/>
		<path fill="#FFFFFF" d="M141.111,30.478h2.045v-6.583h-1.625v-0.742c0.812-0.141,1.4-0.365,1.891-0.659h0.883v7.984h1.85v0.952
			h-5.043V30.478z"/>
		<path fill="#FFFFFF" d="M148.629,26.934c0-2.998,1.078-4.608,2.871-4.608c1.779,0,2.857,1.61,2.857,4.608
			s-1.078,4.664-2.857,4.664C149.707,31.598,148.629,29.932,148.629,26.934z M153.236,26.934c0-2.619-0.699-3.684-1.736-3.684
			c-1.051,0-1.75,1.064-1.75,3.684s0.699,3.74,1.75,3.74C152.537,30.674,153.236,29.553,153.236,26.934z"/>
		<path fill="#FFFFFF" d="M158.164,27.536c0-2.13-0.533-4.244-1.611-6.023l0.715-0.336c1.162,1.877,1.848,3.894,1.848,6.359
			s-0.686,4.482-1.848,6.359l-0.715-0.337C157.631,31.78,158.164,29.665,158.164,27.536z"/>
	</g>
	<g>
		<circle fill="#F9F9F9" cx="36.009" cy="65.496" r="10.03"/>
	</g>
	<g>
		<circle fill="#D6D6D6" cx="36.009" cy="95.27" r="10.03"/>
	</g>
	<g>
		<circle fill="#999999" cx="36.009" cy="125.043" r="10.03"/>
	</g>
	<g>
		<circle fill="#D37171" cx="36.009" cy="154.815" r="10.03"/>
	</g>
	<g>
		<circle fill="#D84841" cx="36.009" cy="184.591" r="10.03"/>
	</g>
	<g>
		<path fill="#FFFFFF" d="M56.719,63.469l6.008-2.354v0.994l-2.955,1.093l-1.877,0.7v0.057l1.877,0.7l2.955,1.093v0.994
			l-6.008-2.354V63.469z"/>
		<path fill="#FFFFFF" d="M65.201,66.732c0.533,0.561,1.234,1.064,2.283,1.064c1.08,0,1.85-0.645,1.85-1.639
			c0-1.064-0.729-1.779-2.857-1.779v-0.883c1.904,0,2.535-0.729,2.535-1.666c0-0.869-0.588-1.416-1.541-1.416
			c-0.742,0-1.373,0.379-1.904,0.911l-0.617-0.729c0.688-0.645,1.514-1.12,2.564-1.12c1.555,0,2.676,0.826,2.676,2.269
			c0,1.079-0.658,1.765-1.625,2.13v0.056c1.078,0.252,1.932,1.036,1.932,2.269c0,1.584-1.303,2.55-2.941,2.55
			c-1.428,0-2.338-0.603-2.941-1.261L65.201,66.732z"/>
		<path fill="#FFFFFF" d="M73.168,66.773c0.531,0.533,1.205,1.023,2.256,1.023c1.092,0,1.961-0.799,1.961-2.045
			c0-1.232-0.758-1.961-1.906-1.961c-0.615,0-0.994,0.195-1.525,0.546l-0.617-0.393l0.295-4.3h4.467v0.994h-3.459L74.4,63.286
			c0.42-0.224,0.826-0.364,1.373-0.364c1.527,0,2.773,0.869,2.773,2.802s-1.457,3.025-3.012,3.025c-1.43,0-2.311-0.603-2.928-1.219
			L73.168,66.773z"/>
		<path fill="#FFFFFF" d="M81.414,61.773h1.148v4.16c0,1.275,0.393,1.82,1.289,1.82c0.699,0,1.176-0.35,1.82-1.148v-4.832h1.148
			v6.808h-0.953l-0.098-1.064h-0.027c-0.533,0.729-1.176,1.177-1.961,1.177c-0.547,0-0.967-0.112-1.289-0.603l0.07,1.261v2.031
			h-1.148V61.773z"/>
		<path fill="#FFFFFF" d="M92.895,58.636h0.842l-3.74,12.187h-0.842L92.895,58.636z"/>
		<path fill="#FFFFFF" d="M96.113,61.773h0.953l0.098,0.98h0.043c0.588-0.645,1.303-1.148,2.115-1.148
			c1.035,0,1.596,0.49,1.877,1.303c0.713-0.771,1.414-1.303,2.24-1.303c1.4,0,2.074,0.924,2.074,2.661v4.314h-1.148v-4.16
			c0-1.274-0.406-1.821-1.262-1.821c-0.531,0-1.078,0.351-1.709,1.051v4.931h-1.148v-4.16c0-1.274-0.406-1.821-1.275-1.821
			c-0.504,0-1.078,0.351-1.709,1.051v4.931h-1.148V61.773z"/>
		<path fill="#FFFFFF" d="M108.572,66.732c0.533,0.561,1.234,1.064,2.283,1.064c1.08,0,1.85-0.645,1.85-1.639
			c0-1.064-0.729-1.779-2.857-1.779v-0.883c1.904,0,2.535-0.729,2.535-1.666c0-0.869-0.588-1.416-1.541-1.416
			c-0.742,0-1.373,0.379-1.904,0.911l-0.617-0.729c0.688-0.645,1.514-1.12,2.564-1.12c1.555,0,2.676,0.826,2.676,2.269
			c0,1.079-0.658,1.765-1.625,2.13v0.056c1.078,0.252,1.932,1.036,1.932,2.269c0,1.584-1.303,2.55-2.941,2.55
			c-1.428,0-2.338-0.603-2.941-1.261L108.572,66.732z"/>
	</g>
	<g>
		<path fill="#FFFFFF" d="M57.193,96.574c0.533,0.561,1.234,1.064,2.283,1.064c1.08,0,1.85-0.645,1.85-1.639
			c0-1.064-0.729-1.779-2.857-1.779v-0.883c1.904,0,2.535-0.728,2.535-1.666c0-0.869-0.588-1.415-1.541-1.415
			c-0.742,0-1.373,0.378-1.904,0.911l-0.617-0.729c0.688-0.645,1.514-1.121,2.564-1.121c1.555,0,2.676,0.826,2.676,2.27
			c0,1.078-0.658,1.765-1.625,2.129v0.057c1.078,0.252,1.932,1.036,1.932,2.269c0,1.583-1.303,2.55-2.941,2.55
			c-1.428,0-2.338-0.603-2.941-1.262L57.193,96.574z"/>
		<path fill="#FFFFFF" d="M65.16,96.616c0.531,0.532,1.205,1.022,2.256,1.022c1.092,0,1.961-0.799,1.961-2.045
			c0-1.232-0.758-1.961-1.906-1.961c-0.615,0-0.994,0.196-1.525,0.547l-0.617-0.393l0.295-4.301h4.467v0.994h-3.459l-0.238,2.648
			c0.42-0.225,0.826-0.365,1.373-0.365c1.527,0,2.773,0.869,2.773,2.803c0,1.933-1.457,3.025-3.012,3.025
			c-1.43,0-2.311-0.603-2.928-1.219L65.16,96.616z"/>
		<path fill="#FFFFFF" d="M72.832,94.473h3.221v0.883h-3.221V94.473z"/>
		<path fill="#FFFFFF" d="M78.613,96.574c0.533,0.561,1.234,1.064,2.283,1.064c1.08,0,1.85-0.645,1.85-1.639
			c0-1.064-0.729-1.779-2.857-1.779v-0.883c1.904,0,2.535-0.728,2.535-1.666c0-0.869-0.588-1.415-1.541-1.415
			c-0.742,0-1.373,0.378-1.904,0.911l-0.617-0.729c0.688-0.645,1.514-1.121,2.564-1.121c1.555,0,2.676,0.826,2.676,2.27
			c0,1.078-0.658,1.765-1.625,2.129v0.057c1.078,0.252,1.932,1.036,1.932,2.269c0,1.583-1.303,2.55-2.941,2.55
			c-1.428,0-2.338-0.603-2.941-1.262L78.613,96.574z"/>
		<path fill="#FFFFFF" d="M87.924,93.73v-0.056c-0.658-0.462-1.246-1.12-1.246-2.06c0-1.372,1.094-2.297,2.535-2.297
			c1.555,0,2.521,0.994,2.521,2.381c0,0.939-0.686,1.737-1.232,2.158v0.056c0.799,0.462,1.555,1.093,1.555,2.297
			c0,1.331-1.148,2.382-2.885,2.382c-1.682,0-2.928-1.037-2.928-2.451C86.244,94.978,87.084,94.18,87.924,93.73z M89.199,97.736
			c1.037,0,1.752-0.644,1.752-1.568c0-1.148-1.135-1.568-2.424-2.087c-0.715,0.476-1.246,1.135-1.246,1.946
			C87.281,97.022,88.107,97.736,89.199,97.736z M90.74,91.756c0-0.883-0.574-1.583-1.555-1.583c-0.826,0-1.443,0.574-1.443,1.442
			c0,1.064,0.98,1.514,2.059,1.934C90.404,93.017,90.74,92.414,90.74,91.756z"/>
		<path fill="#FFFFFF" d="M95.428,96.826c0.449,0,0.826,0.364,0.826,0.896c0,0.504-0.377,0.869-0.826,0.869
			c-0.461,0-0.84-0.365-0.84-0.869C94.588,97.19,94.967,96.826,95.428,96.826z"/>
		<path fill="#FFFFFF" d="M99.123,96.616c0.533,0.532,1.205,1.022,2.256,1.022c1.092,0,1.961-0.799,1.961-2.045
			c0-1.232-0.756-1.961-1.904-1.961c-0.617,0-0.994,0.196-1.527,0.547l-0.617-0.393l0.295-4.301h4.469v0.994h-3.461l-0.236,2.648
			c0.42-0.225,0.826-0.365,1.371-0.365c1.527,0,2.773,0.869,2.773,2.803c0,1.933-1.455,3.025-3.012,3.025
			c-1.428,0-2.311-0.603-2.926-1.219L99.123,96.616z"/>
		<path fill="#FFFFFF" d="M107.369,91.615h1.148v4.16c0,1.275,0.393,1.821,1.289,1.821c0.701,0,1.178-0.351,1.822-1.148v-4.833
			h1.148v6.809h-0.953l-0.098-1.064h-0.029c-0.531,0.728-1.176,1.176-1.961,1.176c-0.545,0-0.965-0.111-1.287-0.602l0.068,1.26
			v2.031h-1.148V91.615z"/>
		<path fill="#FFFFFF" d="M118.852,88.479h0.84l-3.74,12.186h-0.84L118.852,88.479z"/>
		<path fill="#FFFFFF" d="M122.068,91.615h0.953l0.098,0.98h0.043c0.588-0.645,1.303-1.148,2.115-1.148
			c1.035,0,1.596,0.49,1.877,1.303c0.713-0.77,1.414-1.303,2.24-1.303c1.4,0,2.074,0.925,2.074,2.662v4.314h-1.148v-4.16
			c0-1.275-0.406-1.822-1.262-1.822c-0.531,0-1.078,0.352-1.709,1.051v4.932h-1.148v-4.16c0-1.275-0.406-1.822-1.275-1.822
			c-0.504,0-1.078,0.352-1.709,1.051v4.932h-1.148V91.615z"/>
		<path fill="#FFFFFF" d="M134.529,96.574c0.531,0.561,1.232,1.064,2.283,1.064c1.078,0,1.85-0.645,1.85-1.639
			c0-1.064-0.729-1.779-2.857-1.779v-0.883c1.904,0,2.535-0.728,2.535-1.666c0-0.869-0.59-1.415-1.541-1.415
			c-0.742,0-1.373,0.378-1.906,0.911l-0.615-0.729c0.686-0.645,1.512-1.121,2.562-1.121c1.555,0,2.676,0.826,2.676,2.27
			c0,1.078-0.658,1.765-1.625,2.129v0.057c1.078,0.252,1.934,1.036,1.934,2.269c0,1.583-1.303,2.55-2.941,2.55
			c-1.43,0-2.34-0.603-2.941-1.262L134.529,96.574z"/>
	</g>
	<g>
		<path fill="#FFFFFF" d="M57.194,126.417c0.532,0.561,1.233,1.064,2.283,1.064c1.079,0,1.85-0.644,1.85-1.639
			c0-1.064-0.729-1.778-2.857-1.778v-0.883c1.904,0,2.535-0.729,2.535-1.667c0-0.868-0.589-1.415-1.541-1.415
			c-0.742,0-1.373,0.379-1.905,0.91l-0.616-0.729c0.687-0.644,1.513-1.12,2.563-1.12c1.555,0,2.676,0.827,2.676,2.27
			c0,1.078-0.658,1.765-1.625,2.129v0.056c1.078,0.252,1.933,1.037,1.933,2.27c0,1.583-1.303,2.549-2.941,2.549
			c-1.429,0-2.339-0.602-2.941-1.26L57.194,126.417z"/>
		<path fill="#FFFFFF" d="M66.505,123.574v-0.057c-0.658-0.463-1.246-1.121-1.246-2.059c0-1.373,1.093-2.298,2.535-2.298
			c1.555,0,2.521,0.995,2.521,2.382c0,0.938-0.687,1.736-1.232,2.156v0.057c0.798,0.462,1.555,1.092,1.555,2.297
			c0,1.331-1.148,2.381-2.886,2.381c-1.681,0-2.928-1.036-2.928-2.451C64.824,124.82,65.665,124.021,66.505,123.574z M67.78,127.58
			c1.036,0,1.751-0.645,1.751-1.569c0-1.148-1.135-1.569-2.424-2.087c-0.714,0.477-1.246,1.135-1.246,1.947
			C65.861,126.865,66.688,127.58,67.78,127.58z M69.32,121.599c0-0.883-0.574-1.583-1.555-1.583c-0.826,0-1.442,0.574-1.442,1.443
			c0,1.064,0.98,1.512,2.059,1.933C68.984,122.859,69.32,122.257,69.32,121.599z"/>
		<path fill="#FFFFFF" d="M74.009,126.67c0.448,0,0.826,0.363,0.826,0.896c0,0.504-0.378,0.867-0.826,0.867
			c-0.462,0-0.841-0.363-0.841-0.867C73.168,127.033,73.547,126.67,74.009,126.67z"/>
		<path fill="#FFFFFF" d="M77.704,126.459c0.532,0.532,1.205,1.022,2.256,1.022c1.092,0,1.961-0.798,1.961-2.045
			c0-1.232-0.757-1.961-1.905-1.961c-0.616,0-0.994,0.196-1.526,0.546l-0.617-0.393l0.295-4.3h4.468v0.995h-3.46l-0.237,2.646
			c0.42-0.224,0.826-0.363,1.372-0.363c1.527,0,2.773,0.868,2.773,2.801c0,1.934-1.456,3.025-3.012,3.025
			c-1.429,0-2.311-0.602-2.927-1.219L77.704,126.459z"/>
		<path fill="#FFFFFF" d="M85.376,124.316h3.222v0.882h-3.222V124.316z"/>
		<path fill="#FFFFFF" d="M96.775,125.801h-1.219v2.465h-1.093v-2.465h-4.02v-0.756l3.824-5.716h1.288v5.548h1.219V125.801z
			 M94.464,124.877v-2.592c0-0.477,0.043-1.247,0.07-1.723h-0.056c-0.225,0.434-0.477,0.826-0.729,1.26l-2.087,3.055H94.464z"/>
		<path fill="#FFFFFF" d="M98.83,123.77c0-2.998,1.079-4.608,2.872-4.608c1.778,0,2.857,1.61,2.857,4.608s-1.079,4.664-2.857,4.664
			C99.909,128.434,98.83,126.768,98.83,123.77z M103.438,123.77c0-2.619-0.7-3.684-1.736-3.684c-1.051,0-1.751,1.064-1.751,3.684
			s0.7,3.74,1.751,3.74C102.738,127.51,103.438,126.389,103.438,123.77z"/>
		<path fill="#FFFFFF" d="M107.973,126.67c0.448,0,0.826,0.363,0.826,0.896c0,0.504-0.378,0.867-0.826,0.867
			c-0.462,0-0.841-0.363-0.841-0.867C107.132,127.033,107.511,126.67,107.973,126.67z"/>
		<path fill="#FFFFFF" d="M111.668,126.459c0.532,0.532,1.205,1.022,2.256,1.022c1.093,0,1.961-0.798,1.961-2.045
			c0-1.232-0.757-1.961-1.905-1.961c-0.616,0-0.994,0.196-1.526,0.546l-0.617-0.393l0.295-4.3h4.468v0.995h-3.46l-0.237,2.646
			c0.42-0.224,0.826-0.363,1.372-0.363c1.527,0,2.773,0.868,2.773,2.801c0,1.934-1.456,3.025-3.012,3.025
			c-1.429,0-2.311-0.602-2.927-1.219L111.668,126.459z"/>
		<path fill="#FFFFFF" d="M119.914,121.459h1.148v4.16c0,1.274,0.393,1.82,1.289,1.82c0.7,0,1.177-0.35,1.821-1.148v-4.832h1.148
			v6.807h-0.953l-0.098-1.064h-0.028c-0.532,0.729-1.176,1.177-1.961,1.177c-0.546,0-0.966-0.112-1.288-0.603l0.069,1.262v2.03
			h-1.148V121.459z"/>
		<path fill="#FFFFFF" d="M131.396,118.32h0.841l-3.74,12.188h-0.841L131.396,118.32z"/>
		<path fill="#FFFFFF" d="M134.613,121.459h0.953l0.098,0.98h0.042c0.588-0.645,1.303-1.148,2.115-1.148
			c1.036,0,1.597,0.49,1.877,1.303c0.715-0.771,1.415-1.303,2.241-1.303c1.4,0,2.073,0.924,2.073,2.66v4.314h-1.148v-4.16
			c0-1.274-0.406-1.82-1.261-1.82c-0.532,0-1.079,0.35-1.709,1.051v4.93h-1.148v-4.16c0-1.274-0.406-1.82-1.275-1.82
			c-0.504,0-1.078,0.35-1.709,1.051v4.93h-1.148V121.459z"/>
		<path fill="#FFFFFF" d="M147.073,126.417c0.532,0.561,1.233,1.064,2.283,1.064c1.079,0,1.85-0.644,1.85-1.639
			c0-1.064-0.729-1.778-2.857-1.778v-0.883c1.904,0,2.535-0.729,2.535-1.667c0-0.868-0.589-1.415-1.541-1.415
			c-0.742,0-1.373,0.379-1.905,0.91l-0.616-0.729c0.687-0.644,1.513-1.12,2.563-1.12c1.555,0,2.676,0.827,2.676,2.27
			c0,1.078-0.658,1.765-1.625,2.129v0.056c1.078,0.252,1.933,1.037,1.933,2.27c0,1.583-1.303,2.549-2.941,2.549
			c-1.429,0-2.339-0.602-2.941-1.26L147.073,126.417z"/>
	</g>
	<g>
		<path fill="#FFFFFF" d="M62.812,155.644h-1.219v2.466h-1.092v-2.466H56.48v-0.757l3.824-5.715h1.288v5.547h1.219V155.644z
			 M60.501,154.719v-2.592c0-0.476,0.042-1.246,0.069-1.723h-0.056c-0.225,0.435-0.477,0.826-0.729,1.262l-2.087,3.053H60.501z"/>
		<path fill="#FFFFFF" d="M64.866,153.612c0-2.997,1.079-4.608,2.872-4.608c1.778,0,2.857,1.611,2.857,4.608
			s-1.079,4.665-2.857,4.665C65.945,158.277,64.866,156.609,64.866,153.612z M69.475,153.612c0-2.619-0.7-3.684-1.736-3.684
			c-1.051,0-1.751,1.064-1.751,3.684c0,2.62,0.7,3.74,1.751,3.74C68.774,157.353,69.475,156.232,69.475,153.612z"/>
		<path fill="#FFFFFF" d="M74.009,156.512c0.448,0,0.826,0.364,0.826,0.896c0,0.504-0.378,0.869-0.826,0.869
			c-0.462,0-0.841-0.365-0.841-0.869C73.168,156.876,73.547,156.512,74.009,156.512z"/>
		<path fill="#FFFFFF" d="M77.704,156.302c0.532,0.532,1.205,1.022,2.256,1.022c1.092,0,1.961-0.799,1.961-2.045
			c0-1.232-0.757-1.961-1.905-1.961c-0.616,0-0.994,0.196-1.526,0.547l-0.617-0.393l0.295-4.301h4.468v0.994h-3.46l-0.237,2.648
			c0.42-0.225,0.826-0.365,1.372-0.365c1.527,0,2.773,0.869,2.773,2.803c0,1.933-1.456,3.025-3.012,3.025
			c-1.429,0-2.311-0.603-2.927-1.219L77.704,156.302z"/>
		<path fill="#FFFFFF" d="M85.376,154.158h3.222v0.883h-3.222V154.158z"/>
		<path fill="#FFFFFF" d="M96.775,155.644h-1.219v2.466h-1.093v-2.466h-4.02v-0.757l3.824-5.715h1.288v5.547h1.219V155.644z
			 M94.464,154.719v-2.592c0-0.476,0.043-1.246,0.07-1.723h-0.056c-0.225,0.435-0.477,0.826-0.729,1.262l-2.087,3.053H94.464z"/>
		<path fill="#FFFFFF" d="M98.774,157.422c2.689-2.675,4.202-4.285,4.202-5.729c0-1.022-0.561-1.751-1.695-1.751
			c-0.742,0-1.387,0.477-1.904,1.079l-0.659-0.658c0.743-0.812,1.541-1.359,2.704-1.359c1.652,0,2.675,1.051,2.675,2.633
			c0,1.682-1.526,3.349-3.642,5.562c0.49-0.042,1.036-0.084,1.499-0.084h2.591v0.995h-5.771V157.422z"/>
		<path fill="#FFFFFF" d="M107.973,156.512c0.448,0,0.826,0.364,0.826,0.896c0,0.504-0.378,0.869-0.826,0.869
			c-0.462,0-0.841-0.365-0.841-0.869C107.132,156.876,107.511,156.512,107.973,156.512z"/>
		<path fill="#FFFFFF" d="M111.668,156.302c0.532,0.532,1.205,1.022,2.256,1.022c1.093,0,1.961-0.799,1.961-2.045
			c0-1.232-0.757-1.961-1.905-1.961c-0.616,0-0.994,0.196-1.526,0.547l-0.617-0.393l0.295-4.301h4.468v0.994h-3.46l-0.237,2.648
			c0.42-0.225,0.826-0.365,1.372-0.365c1.527,0,2.773,0.869,2.773,2.803c0,1.933-1.456,3.025-3.012,3.025
			c-1.429,0-2.311-0.603-2.927-1.219L111.668,156.302z"/>
		<path fill="#FFFFFF" d="M119.914,151.301h1.148v4.16c0,1.275,0.393,1.821,1.289,1.821c0.7,0,1.177-0.351,1.821-1.148v-4.833h1.148
			v6.809h-0.953l-0.098-1.064h-0.028c-0.532,0.728-1.176,1.176-1.961,1.176c-0.546,0-0.966-0.111-1.288-0.602l0.069,1.26v2.031
			h-1.148V151.301z"/>
		<path fill="#FFFFFF" d="M131.396,148.164h0.841l-3.74,12.186h-0.841L131.396,148.164z"/>
		<path fill="#FFFFFF" d="M134.613,151.301h0.953l0.098,0.98h0.042c0.588-0.645,1.303-1.148,2.115-1.148
			c1.036,0,1.597,0.49,1.877,1.303c0.715-0.77,1.415-1.303,2.241-1.303c1.4,0,2.073,0.925,2.073,2.662v4.314h-1.148v-4.16
			c0-1.275-0.406-1.822-1.261-1.822c-0.532,0-1.079,0.352-1.709,1.051v4.932h-1.148v-4.16c0-1.275-0.406-1.822-1.275-1.822
			c-0.504,0-1.078,0.352-1.709,1.051v4.932h-1.148V151.301z"/>
		<path fill="#FFFFFF" d="M147.073,156.26c0.532,0.561,1.233,1.064,2.283,1.064c1.079,0,1.85-0.645,1.85-1.639
			c0-1.064-0.729-1.779-2.857-1.779v-0.883c1.904,0,2.535-0.728,2.535-1.666c0-0.869-0.589-1.415-1.541-1.415
			c-0.742,0-1.373,0.378-1.905,0.911l-0.616-0.729c0.687-0.645,1.513-1.121,2.563-1.121c1.555,0,2.676,0.826,2.676,2.27
			c0,1.078-0.658,1.765-1.625,2.129v0.057c1.078,0.252,1.933,1.036,1.933,2.269c0,1.583-1.303,2.55-2.941,2.55
			c-1.429,0-2.339-0.603-2.941-1.262L147.073,156.26z"/>
	</g>
	<g>
		<path fill="#FFFFFF" d="M62.728,183.764l-6.009,2.354v-0.995l2.955-1.093l1.877-0.7v-0.056l-1.877-0.701l-2.955-1.092v-0.994
			l6.009,2.353V183.764z"/>
		<path fill="#FFFFFF" d="M70.819,185.486h-1.219v2.465h-1.092v-2.465h-4.021v-0.756l3.824-5.716h1.288v5.548h1.219V185.486z
			 M68.509,184.562v-2.592c0-0.477,0.042-1.247,0.069-1.723h-0.056c-0.225,0.434-0.477,0.826-0.729,1.26l-2.087,3.055H68.509z"/>
		<path fill="#FFFFFF" d="M72.818,187.266c2.689-2.676,4.202-4.287,4.202-5.729c0-1.022-0.561-1.751-1.695-1.751
			c-0.742,0-1.387,0.477-1.904,1.078l-0.659-0.658c0.743-0.812,1.541-1.358,2.704-1.358c1.652,0,2.675,1.051,2.675,2.634
			c0,1.681-1.526,3.348-3.642,5.561c0.49-0.042,1.036-0.084,1.499-0.084h2.591v0.994h-5.771V187.266z"/>
		<path fill="#FFFFFF" d="M82.017,186.355c0.448,0,0.826,0.363,0.826,0.896c0,0.504-0.378,0.867-0.826,0.867
			c-0.462,0-0.841-0.363-0.841-0.867C81.176,186.719,81.555,186.355,82.017,186.355z"/>
		<path fill="#FFFFFF" d="M85.712,186.145c0.532,0.532,1.205,1.022,2.256,1.022c1.092,0,1.961-0.798,1.961-2.045
			c0-1.232-0.757-1.961-1.905-1.961c-0.616,0-0.994,0.196-1.526,0.546l-0.617-0.393l0.295-4.3h4.468v0.995h-3.46l-0.237,2.646
			c0.42-0.224,0.826-0.363,1.372-0.363c1.527,0,2.773,0.868,2.773,2.801c0,1.934-1.456,3.025-3.012,3.025
			c-1.429,0-2.311-0.602-2.927-1.219L85.712,186.145z"/>
		<path fill="#FFFFFF" d="M93.958,181.145h1.148v4.16c0,1.274,0.393,1.82,1.289,1.82c0.7,0,1.177-0.35,1.821-1.148v-4.832h1.148
			v6.807h-0.952l-0.099-1.064h-0.028c-0.532,0.729-1.176,1.177-1.961,1.177c-0.546,0-0.966-0.112-1.288-0.603l0.069,1.262v2.03
			h-1.148V181.145z"/>
		<path fill="#FFFFFF" d="M105.439,178.006h0.841l-3.74,12.188h-0.841L105.439,178.006z"/>
		<path fill="#FFFFFF" d="M108.658,181.145h0.953l0.098,0.98h0.042c0.588-0.645,1.303-1.148,2.115-1.148
			c1.036,0,1.597,0.49,1.877,1.303c0.715-0.771,1.415-1.303,2.241-1.303c1.4,0,2.073,0.924,2.073,2.66v4.314h-1.148v-4.16
			c0-1.274-0.406-1.82-1.261-1.82c-0.532,0-1.079,0.35-1.709,1.051v4.93h-1.148v-4.16c0-1.274-0.406-1.82-1.275-1.82
			c-0.504,0-1.078,0.35-1.709,1.051v4.93h-1.148V181.145z"/>
		<path fill="#FFFFFF" d="M121.117,186.103c0.532,0.561,1.233,1.064,2.283,1.064c1.079,0,1.85-0.644,1.85-1.639
			c0-1.064-0.729-1.778-2.857-1.778v-0.883c1.904,0,2.535-0.729,2.535-1.667c0-0.868-0.589-1.415-1.541-1.415
			c-0.742,0-1.373,0.379-1.905,0.91l-0.616-0.729c0.687-0.644,1.513-1.12,2.563-1.12c1.555,0,2.676,0.827,2.676,2.27
			c0,1.078-0.658,1.765-1.625,2.129v0.056c1.078,0.252,1.933,1.037,1.933,2.27c0,1.583-1.303,2.549-2.941,2.549
			c-1.429,0-2.339-0.602-2.941-1.26L121.117,186.103z"/>
	</g>
	<g>
		<path fill="#FFFFFF" d="M202.703,182.84l6.01-2.354v0.994l-2.955,1.093l-1.877,0.7v0.057l1.877,0.7l2.955,1.093v0.994l-6.01-2.354
			V182.84z"/>
		<path fill="#FFFFFF" d="M215.023,186.146c0.533,0.532,1.205,1.022,2.256,1.022c1.092,0,1.961-0.799,1.961-2.045
			c0-1.233-0.757-1.962-1.905-1.962c-0.616,0-0.995,0.196-1.526,0.547l-0.617-0.393l0.295-4.3h4.469v0.994h-3.461l-0.238,2.647
			c0.421-0.224,0.827-0.364,1.373-0.364c1.527,0,2.773,0.868,2.773,2.802c0,1.933-1.457,3.025-3.012,3.025
			c-1.428,0-2.311-0.603-2.928-1.219L215.023,186.146z"/>
		<path fill="#FFFFFF" d="M228.69,185.487h-1.218v2.465h-1.094v-2.465h-4.02v-0.757l3.824-5.715h1.289v5.547h1.218V185.487z
			 M226.379,184.562v-2.592c0-0.476,0.043-1.246,0.07-1.723h-0.056c-0.224,0.435-0.477,0.826-0.729,1.261l-2.087,3.054H226.379z"/>
		<path fill="#FFFFFF" d="M233.743,180.977c0.784,0,1.303,0.294,1.905,0.784l-0.057-1.162v-2.62h1.163v9.974h-0.952l-0.098-0.799
			h-0.043c-0.532,0.519-1.26,0.967-2.059,0.967c-1.709,0-2.816-1.289-2.816-3.558C230.787,182.349,232.188,180.977,233.743,180.977z
			 M233.855,187.153c0.631,0,1.177-0.308,1.736-0.938v-3.558c-0.574-0.519-1.092-0.714-1.652-0.714c-1.093,0-1.961,1.05-1.961,2.604
			C231.979,186.173,232.664,187.153,233.855,187.153z"/>
		<path fill="#FFFFFF" d="M240.21,178.763h2.731c1.863,0,3.152,0.631,3.152,2.242c0,0.91-0.52,1.723-1.598,2.003v0.056
			c1.345,0.21,2.129,0.938,2.129,2.199c0,1.807-1.428,2.689-3.487,2.689h-2.928V178.763z M242.731,182.686
			c1.569,0,2.213-0.561,2.213-1.583c0-0.994-0.729-1.415-2.157-1.415h-1.414v2.998H242.731z M242.969,187.027
			c1.584,0,2.508-0.574,2.508-1.82c0-1.135-0.896-1.653-2.508-1.653h-1.596v3.474H242.969z"/>
	</g>
	<g>
		<path fill="#FFFFFF" d="M354.394,183.764l-6.009,2.354v-0.994l2.955-1.093l1.877-0.7v-0.057l-1.877-0.7l-2.955-1.093v-0.994
			l6.009,2.354V183.764z"/>
		<path fill="#FFFFFF" d="M360.986,180.01h-4.454v-0.994h5.757v0.714c-2.115,2.704-2.549,4.734-2.703,8.223h-1.19
			C358.549,184.591,359.222,182.461,360.986,180.01z"/>
		<path fill="#FFFFFF" d="M364.834,186.146c0.533,0.532,1.205,1.022,2.256,1.022c1.092,0,1.961-0.799,1.961-2.045
			c0-1.233-0.757-1.962-1.905-1.962c-0.616,0-0.995,0.196-1.526,0.547l-0.617-0.393l0.295-4.3h4.469v0.994h-3.461l-0.238,2.647
			c0.421-0.224,0.827-0.364,1.373-0.364c1.527,0,2.773,0.868,2.773,2.802c0,1.933-1.457,3.025-3.012,3.025
			c-1.428,0-2.311-0.603-2.928-1.219L364.834,186.146z"/>
		<path fill="#FFFFFF" d="M375.546,180.977c0.784,0,1.303,0.294,1.905,0.784l-0.057-1.162v-2.62h1.163v9.974h-0.952l-0.098-0.799
			h-0.043c-0.532,0.519-1.26,0.967-2.059,0.967c-1.709,0-2.816-1.289-2.816-3.558C372.59,182.349,373.991,180.977,375.546,180.977z
			 M375.658,187.153c0.631,0,1.177-0.308,1.736-0.938v-3.558c-0.574-0.519-1.092-0.714-1.652-0.714c-1.093,0-1.961,1.05-1.961,2.604
			C373.781,186.173,374.467,187.153,375.658,187.153z"/>
		<path fill="#FFFFFF" d="M382.013,178.763h2.731c1.863,0,3.152,0.631,3.152,2.242c0,0.91-0.52,1.723-1.598,2.003v0.056
			c1.345,0.21,2.129,0.938,2.129,2.199c0,1.807-1.428,2.689-3.487,2.689h-2.928V178.763z M384.534,182.686
			c1.569,0,2.213-0.561,2.213-1.583c0-0.994-0.729-1.415-2.157-1.415h-1.414v2.998H384.534z M384.771,187.027
			c1.584,0,2.508-0.574,2.508-1.82c0-1.135-0.896-1.653-2.508-1.653h-1.596v3.474H384.771z"/>
	</g>
	<g>
		<path fill="#FFFFFF" d="M203.193,29.89c0.588,0.477,1.191,0.812,2.004,0.812c0.896,0,1.344-0.476,1.344-1.064
			c0-0.7-0.812-1.009-1.555-1.288c-0.967-0.351-2.031-0.812-2.031-1.962c0-1.093,0.869-1.933,2.34-1.933
			c0.854,0,1.596,0.35,2.115,0.77l-0.547,0.729c-0.463-0.35-0.953-0.602-1.555-0.602c-0.854,0-1.246,0.462-1.246,0.98
			c0,0.645,0.742,0.883,1.512,1.177c0.98,0.364,2.074,0.771,2.074,2.06c0,1.105-0.883,2.03-2.494,2.03
			c-0.967,0-1.891-0.406-2.535-0.938L203.193,29.89z"/>
		<path fill="#FFFFFF" d="M212.939,24.455c1.666,0,3.152,1.303,3.152,3.586c0,2.255-1.486,3.558-3.152,3.558
			c-1.668,0-3.152-1.303-3.152-3.558C209.787,25.758,211.271,24.455,212.939,24.455z M212.939,30.646
			c1.176,0,1.961-1.051,1.961-2.605c0-1.568-0.785-2.634-1.961-2.634c-1.162,0-1.961,1.065-1.961,2.634
			C210.979,29.596,211.777,30.646,212.939,30.646z"/>
		<path fill="#FFFFFF" d="M218.832,24.623h1.162v4.16c0,1.275,0.379,1.82,1.275,1.82c0.699,0,1.189-0.35,1.834-1.148v-4.832h1.148
			v6.808h-0.953l-0.098-1.064h-0.041c-0.631,0.742-1.303,1.232-2.242,1.232c-1.441,0-2.086-0.925-2.086-2.661V24.623z"/>
		<path fill="#FFFFFF" d="M227.596,24.623h0.953l0.098,0.98h0.041c0.645-0.645,1.346-1.148,2.283-1.148
			c1.43,0,2.074,0.924,2.074,2.661v4.314h-1.148v-4.16c0-1.274-0.393-1.821-1.289-1.821c-0.701,0-1.178,0.364-1.863,1.051v4.931
			h-1.148V24.623z"/>
		<path fill="#FFFFFF" d="M238.77,24.455c0.783,0,1.303,0.294,1.904,0.784l-0.057-1.163v-2.619h1.164v9.974h-0.953l-0.098-0.798
			h-0.043c-0.531,0.518-1.26,0.966-2.059,0.966c-1.709,0-2.816-1.288-2.816-3.558C235.812,25.828,237.215,24.455,238.77,24.455z
			 M238.881,30.633c0.631,0,1.176-0.309,1.736-0.939v-3.558c-0.574-0.519-1.092-0.714-1.652-0.714c-1.092,0-1.961,1.051-1.961,2.605
			C237.004,29.652,237.689,30.633,238.881,30.633z"/>
		<path fill="#FFFFFF" d="M250.148,32.005v2.298H249v-9.68h0.953l0.098,0.784h0.043c0.615-0.519,1.373-0.952,2.17-0.952
			c1.752,0,2.689,1.358,2.689,3.474c0,2.312-1.387,3.67-2.941,3.67c-0.629,0-1.26-0.294-1.891-0.784L250.148,32.005z
			 M251.816,30.633c1.121,0,1.947-1.023,1.947-2.704c0-1.499-0.504-2.507-1.793-2.507c-0.574,0-1.148,0.322-1.822,0.924v3.572
			C250.766,30.436,251.367,30.633,251.816,30.633z"/>
		<path fill="#FFFFFF" d="M260.469,24.455c1.666,0,3.152,1.303,3.152,3.586c0,2.255-1.486,3.558-3.152,3.558
			c-1.668,0-3.152-1.303-3.152-3.558C257.316,25.758,258.801,24.455,260.469,24.455z M260.469,30.646
			c1.176,0,1.961-1.051,1.961-2.605c0-1.568-0.785-2.634-1.961-2.634c-1.162,0-1.961,1.065-1.961,2.634
			C258.508,29.596,259.307,30.646,260.469,30.646z"/>
		<path fill="#FFFFFF" d="M266.459,21.457h1.148v8.686c0,0.363,0.154,0.504,0.322,0.504c0.07,0,0.125,0,0.252-0.028l0.154,0.868
			c-0.154,0.07-0.35,0.112-0.658,0.112c-0.869,0-1.219-0.546-1.219-1.54V21.457z"/>
		<path fill="#FFFFFF" d="M271.078,21.457h1.148v8.686c0,0.363,0.154,0.504,0.322,0.504c0.07,0,0.127,0,0.252-0.028l0.154,0.868
			c-0.154,0.07-0.35,0.112-0.658,0.112c-0.867,0-1.219-0.546-1.219-1.54V21.457z"/>
		<path fill="#FFFFFF" d="M275.602,24.623h1.162v4.16c0,1.275,0.379,1.82,1.275,1.82c0.699,0,1.189-0.35,1.834-1.148v-4.832h1.148
			v6.808h-0.953l-0.098-1.064h-0.041c-0.631,0.742-1.303,1.232-2.242,1.232c-1.441,0-2.086-0.925-2.086-2.661V24.623z"/>
		<path fill="#FFFFFF" d="M284.561,25.562h-1.008v-0.868l1.064-0.07l0.141-1.905h0.967v1.905h1.834v0.938h-1.834v3.782
			c0,0.84,0.266,1.316,1.049,1.316c0.238,0,0.547-0.098,0.771-0.182l0.225,0.868c-0.379,0.126-0.842,0.252-1.262,0.252
			c-1.457,0-1.947-0.925-1.947-2.269V25.562z"/>
		<path fill="#FFFFFF" d="M289.936,22.48c0-0.449,0.352-0.743,0.799-0.743c0.449,0,0.799,0.294,0.799,0.743
			c0,0.434-0.35,0.742-0.799,0.742C290.287,23.223,289.936,22.914,289.936,22.48z M290.146,24.623h1.148v6.808h-1.148V24.623z"/>
		<path fill="#FFFFFF" d="M297.287,24.455c1.668,0,3.152,1.303,3.152,3.586c0,2.255-1.484,3.558-3.152,3.558
			c-1.666,0-3.15-1.303-3.15-3.558C294.137,25.758,295.621,24.455,297.287,24.455z M297.287,30.646c1.178,0,1.961-1.051,1.961-2.605
			c0-1.568-0.783-2.634-1.961-2.634c-1.162,0-1.961,1.065-1.961,2.634C295.326,29.596,296.125,30.646,297.287,30.646z"/>
		<path fill="#FFFFFF" d="M303.277,24.623h0.953l0.098,0.98h0.043c0.645-0.645,1.344-1.148,2.283-1.148
			c1.428,0,2.072,0.924,2.072,2.661v4.314h-1.148v-4.16c0-1.274-0.393-1.821-1.289-1.821c-0.699,0-1.176,0.364-1.863,1.051v4.931
			h-1.148V24.623z"/>
	</g>
	<g>
		<path fill="#FFFFFF" d="M369,167h-1v-1h1V167z M369,165h-1v-1h1V165z M369,163h-1v-1h1V163z M369,161h-1v-1h1V161z M369,159h-1v-1
			h1V159z M369,157h-1v-1h1V157z M369,155h-1v-1h1V155z M369,153h-1v-1h1V153z M369,151h-1v-1h1V151z M369,149h-1v-1h1V149z
			 M369,147h-1v-1h1V147z M369,145h-1v-1h1V145z M369,143h-1v-1h1V143z M369,141h-1v-1h1V141z M369,139h-1v-1h1V139z M369,137h-1v-1
			h1V137z M369,135h-1v-1h1V135z M369,133h-1v-1h1V133z M369,131h-1v-1h1V131z M369,129h-1v-1h1V129z M369,127h-1v-1h1V127z
			 M369,125h-1v-1h1V125z M369,123h-1v-1h1V123z M369,121h-1v-1h1V121z M369,119h-1v-1h1V119z M369,117h-1v-1h1V117z M369,115h-1v-1
			h1V115z M369,113h-1v-1h1V113z M369,111h-1v-1h1V111z M369,109h-1v-1h1V109z M369,107h-1v-1h1V107z M369,105h-1v-1h1V105z
			 M369,103h-1v-1h1V103z M369,101h-1v-1h1V101z M369,99h-1v-1h1V99z M369,97h-1v-1h1V97z M369,95h-1v-1h1V95z M369,93h-1v-1h1V93z
			 M369,91h-1v-1h1V91z M369,89h-1v-1h1V89z M369,87h-1v-1h1V87z M369,85h-1v-1h1V85z M369,83h-1v-1h1V83z M369,81h-1v-1h1V81z
			 M369,79h-1v-1h1V79z M369,77h-1v-1h1V77z M369,75h-1v-1h1V75z M369,73h-1v-1h1V73z M369,71h-1v-1h1V71z M369,69h-1v-1h1V69z
			 M369,67h-1v-1h1V67z M369,65h-1v-1h1V65z M369,63h-1v-1h1V63z M369,61h-1v-1h1V61z"/>
	</g>
	<g>
		<path fill="#FFFFFF" d="M228,169h-1v-1h1V169z M228,167h-1v-1h1V167z"/>
	</g>
	<g>
		<linearGradient id="SVGID_2_" gradientUnits="userSpaceOnUse" x1="297.5" y1="163" x2="297.5" y2="54.7041">
			<stop  offset="0" style="stop-color:#FFFFFF"/>
			<stop  offset="0.3163" style="stop-color:#F6FF00"/>
			<stop  offset="1" style="stop-color:#D40B00"/>
		</linearGradient>
		<path fill="url(#SVGID_2_)" d="M266.49,163H227v-3h39.49c24.023,0,34.842-24.18,46.448-49.779
			C325.313,82.928,338,54.704,368,54.704v3c-28,0-40.347,27.328-52.329,53.756C304.183,136.799,292.447,163,266.49,163z"/>
	</g>
	<g>
		<rect x="181" y="23" fill="#373F3E" width="1" height="165"/>
	</g>
</g>
<g id="Popup">
</g>
<g id="Option_2">
</g>
</svg>
