<?xml version="1.0" encoding="utf-8"?>
<!-- Generator: Adobe Illustrator 16.0.0, SVG Export Plug-In . SVG Version: 6.00 Build 0)  -->
<!DOCTYPE svg PUBLIC "-//W3C//DTD SVG 1.1//EN" "http://www.w3.org/Graphics/SVG/1.1/DTD/svg11.dtd">
<svg version="1.1" id="Layer_1" xmlns="http://www.w3.org/2000/svg" xmlns:xlink="http://www.w3.org/1999/xlink" x="0px" y="0px"
	 width="107.118px" height="28.146px" viewBox="0 0 107.118 28.146" enable-background="new 0 0 107.118 28.146"
	 xml:space="preserve">
<g>
	<g>
		<path fill="#FFFFFF" d="M0.828,21.993c0-0.68,0.613-0.977,0.613-0.977c0.037-0.019,0.066-0.029,0.086,0.01l0.031,0.06
			c0.021,0.039,0.021,0.069-0.031,0.088c0,0-0.512,0.247-0.512,0.819c0,0.297,0.07,0.465,0.128,0.562
			c0.051-0.049,0.106-0.098,0.198-0.098c0.127,0,0.226,0.109,0.226,0.228c0,0.117-0.099,0.216-0.226,0.216
			C1.133,22.901,0.828,22.656,0.828,21.993z"/>
		<path fill="#FFFFFF" d="M3.285,27.186l0.039-0.039c0.028-0.029,0.057-0.021,0.089,0.011c0.126,0.107,0.858,0.759,1.974,0.759
			c1.057,0,2.003-0.701,2.003-1.56c0-1.076-0.858-1.46-2.114-1.796c-1.191-0.325-2.061-0.702-2.061-1.847
			c0-0.799,0.603-1.727,2.152-1.727c0.986,0,1.707,0.502,1.707,0.502c0.027,0.022,0.039,0.051,0.02,0.079l-0.039,0.061
			c-0.02,0.029-0.041,0.039-0.08,0.02c0,0-0.699-0.484-1.607-0.484c-1.433,0-1.976,0.829-1.976,1.55
			c0,1.008,0.778,1.362,1.935,1.669c1.383,0.384,2.24,0.828,2.24,1.974c0,0.947-1.027,1.737-2.18,1.737
			c-1.176,0-1.974-0.7-2.102-0.818C3.255,27.245,3.255,27.215,3.285,27.186z"/>
		<path fill="#FFFFFF" d="M9.834,24.64V24.6c0-0.039,0.021-0.069,0.061-0.069h2.398c0.028,0,0.057,0.03,0.057,0.069v0.04
			c0,0.039-0.028,0.068-0.057,0.068H9.895C9.855,24.708,9.834,24.679,9.834,24.64z"/>
		<path fill="#FFFFFF" d="M15.17,21.155c0-0.039,0.03-0.069,0.07-0.069h0.039c0.039,0,0.068,0.03,0.068,0.069v3.158h4.856v-3.158
			c0-0.039,0.03-0.069,0.069-0.069h0.039c0.039,0,0.068,0.03,0.068,0.069v6.77c0,0.039-0.029,0.07-0.068,0.07h-0.039
			c-0.039,0-0.069-0.031-0.069-0.07V24.49h-4.856v3.435c0,0.039-0.029,0.07-0.068,0.07H15.24c-0.04,0-0.07-0.031-0.07-0.07V21.155z"
			/>
		<path fill="#FFFFFF" d="M23.08,21.155c0-0.039,0.031-0.069,0.07-0.069h4.018c0.037,0,0.067,0.03,0.067,0.069v0.04
			c0,0.039-0.03,0.067-0.067,0.067h-3.91v3.051h3.436c0.039,0,0.068,0.03,0.068,0.069v0.04c0,0.039-0.029,0.067-0.068,0.067h-3.436
			v3.327h3.91c0.037,0,0.067,0.029,0.067,0.068v0.039c0,0.039-0.03,0.07-0.067,0.07H23.15c-0.039,0-0.07-0.031-0.07-0.07V21.155z"/>
		<path fill="#FFFFFF" d="M29.59,21.155c0-0.039,0.03-0.069,0.069-0.069H32c1.232,0,2.25,0.888,2.25,2.112
			c0,1.095-0.781,1.934-1.801,2.121l1.542,2.577c0.021,0.028,0.021,0.059-0.008,0.079l-0.091,0.049
			c-0.029,0.01-0.051-0.01-0.059-0.029l-1.571-2.646c-0.089,0.01-0.167,0.01-0.255,0.01H29.76v2.566c0,0.039-0.034,0.07-0.062,0.07
			h-0.039c-0.039,0-0.069-0.031-0.069-0.07V21.155z M32.008,25.191c1.135,0,2.072-0.848,2.072-1.993c0-1.125-0.938-1.936-2.08-1.936
			h-2.24v3.929H32.008z"/>
		<path fill="#FFFFFF" d="M37.521,21.263h-2.053c-0.039,0-0.07-0.028-0.07-0.067v-0.04c0-0.039,0.031-0.069,0.07-0.069h4.303
			c0.041,0,0.07,0.03,0.07,0.069v0.04c0,0.039-0.029,0.067-0.07,0.067h-2.074v6.662c0,0.039-0.027,0.07-0.066,0.07h-0.039
			c-0.041,0-0.07-0.031-0.07-0.07V21.263z"/>
		<path fill="#FFFFFF" d="M44.416,20.987c1.985,0,3.574,1.58,3.574,3.563c0,1.984-1.589,3.543-3.574,3.543
			c-1.984,0-3.564-1.559-3.564-3.543C40.852,22.567,42.432,20.987,44.416,20.987z M44.416,27.916c1.886,0,3.396-1.48,3.396-3.365
			s-1.511-3.387-3.396-3.387c-1.885,0-3.385,1.502-3.385,3.387S42.531,27.916,44.416,27.916z"/>
		<path fill="#FFFFFF" d="M53.262,20.987c1.009,0,1.729,0.354,2.4,0.917c0.02,0.02,0.029,0.05,0.008,0.079l-0.047,0.059
			c-0.031,0.031-0.061,0.021-0.078,0c-0.643-0.553-1.337-0.878-2.283-0.878c-1.883,0-3.402,1.502-3.402,3.387
			s1.52,3.365,3.402,3.365c1.324,0,2.124-0.514,2.322-0.681v-2.319h-2.242c-0.039,0-0.068-0.03-0.068-0.069v-0.041
			c0-0.029,0.029-0.058,0.068-0.058h2.35c0.04,0,0.068,0.028,0.068,0.058v2.498c-0.068,0.108-0.936,0.79-2.498,0.79
			c-1.982,0-3.582-1.559-3.582-3.543C49.68,22.567,51.279,20.987,53.262,20.987z"/>
		<path fill="#FFFFFF" d="M58.123,21.155c0-0.039,0.031-0.069,0.07-0.069h4.018c0.039,0,0.068,0.03,0.068,0.069v0.04
			c0,0.039-0.029,0.067-0.068,0.067h-3.91v3.051h3.436c0.037,0,0.068,0.03,0.068,0.069v0.04c0,0.039-0.031,0.067-0.068,0.067h-3.436
			v3.327h3.91c0.039,0,0.068,0.029,0.068,0.068v0.039c0,0.039-0.029,0.07-0.068,0.07h-4.018c-0.039,0-0.07-0.031-0.07-0.07V21.155z"
			/>
		<path fill="#FFFFFF" d="M64.633,20.987c0-0.068,0.09-0.1,0.129-0.04l5.102,6.802v-6.594c0-0.039,0.03-0.069,0.07-0.069h0.041
			c0.039,0,0.068,0.03,0.068,0.069v6.918c0,0.07-0.09,0.1-0.129,0.04l-5.105-6.8v6.611c0,0.039-0.028,0.07-0.067,0.07h-0.04
			c-0.039,0-0.068-0.031-0.068-0.07V20.987z"/>
		<path fill="#FFFFFF" d="M72.74,21.155c0-0.039,0.031-0.069,0.07-0.069h2.032c1.235,0,2.074,0.623,2.074,1.746
			c0,0.811-0.497,1.372-1.257,1.601c0.88,0.167,1.473,0.72,1.473,1.707c0,1.105-0.908,1.855-2.201,1.855h-2.121
			c-0.039,0-0.07-0.031-0.07-0.07V21.155z M74.863,24.372c1.095,0,1.873-0.571,1.873-1.54c0-1.016-0.76-1.569-1.894-1.569h-1.925
			v3.109H74.863z M74.932,27.817c1.203,0,2.024-0.671,2.024-1.678c0-1.097-0.8-1.589-1.907-1.589h-2.131v3.267H74.932z"/>
		<path fill="#FFFFFF" d="M82.469,20.987c1.984,0,3.571,1.58,3.571,3.563c0,1.984-1.587,3.543-3.571,3.543s-3.564-1.559-3.564-3.543
			C78.904,22.567,80.484,20.987,82.469,20.987z M82.469,27.916c1.884,0,3.396-1.48,3.396-3.365s-1.512-3.387-3.396-3.387
			c-1.889,0-3.387,1.502-3.387,3.387S80.58,27.916,82.469,27.916z"/>
		<path fill="#FFFFFF" d="M87.842,27.186l0.039-0.039c0.027-0.029,0.057-0.021,0.088,0.011c0.128,0.107,0.859,0.759,1.975,0.759
			c1.056,0,2.003-0.701,2.003-1.56c0-1.076-0.857-1.46-2.113-1.796c-1.193-0.325-2.062-0.702-2.062-1.847
			c0-0.799,0.602-1.727,2.15-1.727c0.987,0,1.709,0.502,1.709,0.502c0.027,0.022,0.039,0.051,0.02,0.079l-0.041,0.061
			c-0.02,0.029-0.039,0.039-0.078,0.02c0,0-0.7-0.484-1.609-0.484c-1.432,0-1.973,0.829-1.973,1.55c0,1.008,0.777,1.362,1.934,1.669
			c1.381,0.384,2.241,0.828,2.241,1.974c0,0.947-1.027,1.737-2.181,1.737c-1.177,0-1.975-0.7-2.102-0.818
			C87.812,27.245,87.812,27.215,87.842,27.186z"/>
		<path fill="#FFFFFF" d="M97.291,20.987c1.007,0,1.729,0.354,2.4,0.917c0.02,0.02,0.027,0.05,0.008,0.079l-0.049,0.059
			c-0.031,0.031-0.059,0.021-0.078,0c-0.643-0.553-1.334-0.878-2.281-0.878c-1.885,0-3.402,1.502-3.402,3.387
			s1.518,3.365,3.402,3.365c0.84,0,1.619-0.315,2.281-0.918c0.02-0.021,0.057-0.03,0.078,0l0.049,0.06
			c0.02,0.021,0.02,0.049,0,0.068c-0.68,0.652-1.529,0.968-2.408,0.968c-1.982,0-3.582-1.559-3.582-3.543
			C93.709,22.567,95.309,20.987,97.291,20.987z"/>
		<path fill="#FFFFFF" d="M101.906,21.155c0-0.039,0.027-0.069,0.068-0.069h0.04c0.041,0,0.068,0.03,0.068,0.069v3.158h4.856v-3.158
			c0-0.039,0.031-0.069,0.07-0.069h0.041c0.039,0,0.067,0.03,0.067,0.069v6.77c0,0.039-0.028,0.07-0.067,0.07h-0.041
			c-0.039,0-0.07-0.031-0.07-0.07V24.49h-4.856v3.435c0,0.039-0.027,0.07-0.068,0.07h-0.04c-0.041,0-0.068-0.031-0.068-0.07V21.155z
			"/>
	</g>
	<g>
		<path fill="#FFFFFF" d="M7.51,0c2.103,0,3.621,0.665,5.035,1.935c0.188,0.168,0.188,0.416,0.02,0.582l-1.27,1.311
			c-0.145,0.167-0.352,0.167-0.518,0C9.9,3.058,8.736,2.602,7.572,2.602c-2.664,0-4.641,2.227-4.641,4.847
			c0,2.601,1.998,4.806,4.66,4.806c1.25,0,2.309-0.479,3.186-1.185c0.166-0.146,0.393-0.125,0.518,0l1.291,1.33
			c0.165,0.146,0.125,0.417-0.021,0.562c-1.414,1.374-3.203,2.019-5.055,2.019C3.35,14.979,0,11.672,0,7.511S3.35,0,7.51,0z"/>
		<path fill="#FFFFFF" d="M19.442,0.603c0-0.207,0.187-0.395,0.396-0.395h1.935c0.208,0,0.396,0.188,0.396,0.395v13.773
			c0,0.208-0.188,0.395-0.396,0.395h-1.935c-0.209,0-0.396-0.187-0.396-0.395V0.603z"/>
		<path fill="#FFFFFF" d="M32.064,2.705h-3.182c-0.23,0-0.396-0.188-0.396-0.396V0.603c0-0.207,0.165-0.395,0.396-0.395h9.092
			c0.229,0,0.395,0.188,0.395,0.395V2.31c0,0.207-0.166,0.396-0.395,0.396h-3.184v11.671c0,0.208-0.188,0.395-0.396,0.395H32.46
			c-0.208,0-0.396-0.187-0.396-0.395V2.705z"/>
		<path fill="#FFFFFF" d="M48.158,7.761l-4.742-6.949c-0.168-0.271,0-0.604,0.332-0.604h2.123c0.164,0,0.27,0.104,0.331,0.188
			l3.329,4.785l3.33-4.785c0.062-0.083,0.166-0.188,0.334-0.188h2.142c0.333,0,0.499,0.333,0.333,0.604l-4.808,6.93v6.635
			c0,0.208-0.187,0.395-0.396,0.395h-1.913c-0.228,0-0.396-0.187-0.396-0.395V7.761z"/>
		<path fill="#FFFFFF" d="M70.408,0.603c0-0.207,0.188-0.395,0.395-0.395h1.936c0.205,0,0.395,0.188,0.395,0.395v13.773
			c0,0.208-0.189,0.395-0.395,0.395h-1.936c-0.207,0-0.395-0.187-0.395-0.395V0.603z"/>
		<path fill="#FFFFFF" d="M83.738,0.479c0.041-0.147,0.209-0.271,0.375-0.271h1.496c0.292,0,0.459,0.229,0.374,0.521l-4.057,13.773
			c-0.04,0.146-0.228,0.269-0.373,0.269h-1.519c-0.271,0-0.457-0.229-0.377-0.52L83.738,0.479z"/>
		<path fill="#FFFFFF" d="M98.775,0c4.158,0,7.488,3.35,7.488,7.511s-3.33,7.469-7.488,7.469c-4.162,0-7.471-3.308-7.471-7.469
			S94.613,0,98.775,0z M98.775,12.275c2.621,0,4.783-2.144,4.783-4.765s-2.162-4.806-4.783-4.806c-2.623,0-4.766,2.185-4.766,4.806
			S96.152,12.275,98.775,12.275z"/>
	</g>
</g>
</svg>
