<?xml version="1.0" encoding="utf-8"?>
<!-- Generator: Adobe Illustrator 16.0.0, SVG Export Plug-In . SVG Version: 6.00 Build 0)  -->
<!DOCTYPE svg PUBLIC "-//W3C//DTD SVG 1.1//EN" "http://www.w3.org/Graphics/SVG/1.1/DTD/svg11.dtd">
<svg version="1.1" xmlns="http://www.w3.org/2000/svg" xmlns:xlink="http://www.w3.org/1999/xlink" x="0px" y="0px"
	 width="272.15px" height="205.484px" viewBox="0 0 272.15 205.484" enable-background="new 0 0 272.15 205.484"
	 xml:space="preserve">
<g id="Layer_2">
</g>
<g id="Layer_1">
	<g>
		<g>
			<path fill="#FFFFFF" d="M31,122.156c0,4.189-3.396,7.586-7.586,7.586H7.586c-4.189,0-7.586-3.396-7.586-7.586v-15.828
				c0-4.189,3.396-7.586,7.586-7.586h15.828c4.189,0,7.586,3.396,7.586,7.586V122.156z"/>
			<g>
				<path d="M12.139,117.154l3.303-7.15c0.033-0.064,0.086-0.117,0.182-0.117h0.107c0.105,0,0.148,0.053,0.18,0.117l3.273,7.15
					c0.064,0.139-0.021,0.277-0.182,0.277h-0.924c-0.16,0-0.234-0.064-0.309-0.213l-0.521-1.148h-3.176l-0.521,1.148
					c-0.043,0.105-0.139,0.213-0.307,0.213h-0.926C12.158,117.432,12.074,117.293,12.139,117.154z M16.729,114.893l-1.062-2.34
					h-0.033l-1.041,2.34H16.729z"/>
			</g>
		</g>
		<g>
			<path fill="#FFFFFF" d="M13.348,193.738v1.051h-0.477l-0.055-1.064l-1.947-0.084v-0.533h1.947v-1.947h0.531v1.947h4.385
				c0.855,0,1.43-0.209,1.43-1.135c0-0.252-0.1-0.602-0.211-0.84l0.504-0.168c0.141,0.393,0.252,0.812,0.252,1.092
				c0,1.303-0.826,1.682-2.031,1.682H13.348z"/>
			<path fill="#FFFFFF" d="M12.816,188.699v-0.617h4.23c1.428,0,2.1-0.447,2.1-1.527c0-0.797-0.42-1.387-1.371-2.17h-4.959v-0.617
				h6.723v0.52l-1.121,0.068v0.029c0.771,0.658,1.289,1.357,1.289,2.283c0,1.387-0.84,2.031-2.576,2.031H12.816z"/>
			<path fill="#FFFFFF" d="M12.816,180.145v-0.533l1.246-0.055v-0.043c-0.826-0.447-1.414-1.105-1.414-1.904
				c0-0.252,0.027-0.449,0.139-0.672l0.561,0.139c-0.084,0.225-0.111,0.352-0.111,0.617c0,0.602,0.463,1.316,1.723,1.834h4.58v0.617
				H12.816z"/>
			<path fill="#FFFFFF" d="M12.816,174.656v-0.531l1.035-0.057v-0.041c-0.686-0.688-1.203-1.387-1.203-2.312
				c0-1.387,0.84-2.031,2.576-2.031h4.314v0.617h-4.23c-1.428,0-2.1,0.447-2.1,1.541c0,0.799,0.42,1.373,1.26,2.199h5.07v0.615
				H12.816z"/>
			<path fill="#FFFFFF" d="M9.469,162.322v-0.615h9.258c0.295,0,0.436-0.127,0.436-0.295c0-0.055,0-0.111-0.029-0.252l0.504-0.111
				c0.043,0.125,0.07,0.252,0.07,0.447c0,0.547-0.336,0.826-1.064,0.826H9.469z"/>
			<path fill="#FFFFFF" d="M12.648,155.588c0-1.598,1.135-2.578,3.109-2.578c0.168,0,0.336,0,0.504,0.029v4.846
				c1.695-0.027,2.914-1.021,2.914-2.535c0-0.729-0.238-1.303-0.604-1.807l0.477-0.252c0.322,0.531,0.658,1.135,0.658,2.115
				c0,1.723-1.316,3.109-3.516,3.109S12.648,157.086,12.648,155.588z M15.785,153.598c-1.723,0-2.605,0.771-2.605,1.977
				c0,1.148,0.994,2.17,2.605,2.311V153.598z"/>
			<path fill="#FFFFFF" d="M19.455,144.037c0.141,0.391,0.252,0.826,0.252,1.105c0,1.289-0.826,1.668-2.031,1.668h-4.328v2.619
				h6.191v0.615h-6.191v0.926h-0.477l-0.055-0.926h-1.5c-1.33,0-2.016-0.602-2.016-1.666c0-0.309,0.084-0.672,0.223-0.98
				l0.506,0.168c-0.141,0.279-0.197,0.561-0.197,0.812c0,0.715,0.561,1.051,1.527,1.051h1.457v-2.635l-1.947-0.084v-0.518h1.947
				v-1.961h0.531v1.961h4.385c0.855,0,1.43-0.225,1.43-1.148c0-0.252-0.1-0.604-0.211-0.84L19.455,144.037z"/>
		</g>
		<g>
			<path fill="#FFFFFF" d="M101,122.156c0,4.189-3.396,7.586-7.586,7.586H77.586c-4.189,0-7.586-3.396-7.586-7.586v-15.828
				c0-4.189,3.396-7.586,7.586-7.586h15.828c4.189,0,7.586,3.396,7.586,7.586V122.156z"/>
			<g>
				<path d="M82.438,109.641c0-0.107,0.086-0.201,0.191-0.201h2.52c2.051,0,3.73,1.668,3.73,3.709c0,2.061-1.68,3.729-3.73,3.729
					h-2.52c-0.105,0-0.191-0.096-0.191-0.201V109.641z M85.021,115.58c1.381,0,2.391-1.041,2.391-2.432
					c0-1.383-1.01-2.424-2.391-2.424h-1.211v4.855H85.021z"/>
			</g>
		</g>
		<g>
			<path fill="#FFFFFF" d="M82.521,204.434v1.051h-0.477l-0.057-1.064l-1.947-0.084v-0.533h1.947v-1.947h0.533v1.947h4.385
				c0.854,0,1.428-0.209,1.428-1.135c0-0.252-0.098-0.602-0.209-0.84l0.504-0.168c0.139,0.393,0.252,0.812,0.252,1.092
				c0,1.303-0.826,1.682-2.031,1.682H82.521z"/>
			<path fill="#FFFFFF" d="M81.988,199.395v-0.617h4.23c1.43,0,2.102-0.447,2.102-1.527c0-0.797-0.42-1.387-1.373-2.17h-4.959
				v-0.617h6.725v0.52l-1.121,0.068v0.029c0.77,0.658,1.289,1.357,1.289,2.283c0,1.387-0.84,2.031-2.578,2.031H81.988z"/>
			<path fill="#FFFFFF" d="M81.988,190.84v-0.533l1.248-0.055v-0.043c-0.828-0.447-1.416-1.105-1.416-1.904
				c0-0.252,0.029-0.449,0.141-0.672l0.561,0.139c-0.084,0.225-0.113,0.352-0.113,0.617c0,0.602,0.463,1.316,1.725,1.834h4.58v0.617
				H81.988z"/>
			<path fill="#FFFFFF" d="M81.988,185.352v-0.533l1.037-0.055v-0.043c-0.686-0.686-1.205-1.387-1.205-2.311
				c0-1.387,0.842-2.031,2.578-2.031h4.314v0.615h-4.23c-1.43,0-2.102,0.449-2.102,1.541c0,0.799,0.42,1.373,1.262,2.199h5.07v0.617
				H81.988z"/>
			<path fill="#FFFFFF" d="M81.988,173.018v-0.533l1.248-0.055v-0.043c-0.828-0.447-1.416-1.105-1.416-1.904
				c0-0.252,0.029-0.449,0.141-0.672l0.561,0.139c-0.084,0.225-0.113,0.352-0.113,0.617c0,0.602,0.463,1.316,1.725,1.834h4.58v0.617
				H81.988z"/>
			<path fill="#FFFFFF" d="M79.818,167.768c-0.352,0-0.561-0.252-0.561-0.561c0-0.307,0.209-0.559,0.561-0.559
				c0.322,0,0.545,0.252,0.545,0.559C80.363,167.516,80.141,167.768,79.818,167.768z M81.988,167.529v-0.615h6.725v0.615H81.988z"/>
			<path fill="#FFFFFF" d="M88.461,162.84h-0.057c-0.195,0.336-0.561,0.588-1.078,0.588c-0.604,0-1.023-0.434-1.232-0.729h-0.057
				c-0.365,0.422-1.037,0.842-1.85,0.842c-1.387,0-2.367-1.051-2.367-2.367c0-0.365,0.084-0.674,0.168-0.883v-2.283h0.52v1.568
				c0.377-0.434,0.98-0.742,1.693-0.742c1.373,0,2.367,1.023,2.367,2.34c0,0.377-0.098,0.812-0.279,1.119
				c0.238,0.295,0.518,0.547,0.967,0.547c0.49,0,0.883-0.279,0.883-1.289v-1.441c0-1.514,0.477-2.215,1.541-2.215
				c1.162,0,2.268,1.248,2.268,3.18c0,1.695-0.727,2.76-1.861,2.76C89.496,163.834,88.908,163.457,88.461,162.84z M84.188,159.436
				c-1.135,0-1.863,0.785-1.863,1.738c0,0.951,0.715,1.75,1.863,1.75c1.135,0,1.891-0.812,1.891-1.75
				C86.078,160.248,85.322,159.436,84.188,159.436z M91.443,161.006c0-1.514-0.854-2.48-1.695-2.48
				c-0.742,0-1.021,0.547-1.021,1.555v1.443c0,0.141-0.027,0.49-0.111,0.84c0.42,0.617,0.938,0.883,1.414,0.883
				C90.869,163.246,91.443,162.434,91.443,161.006z"/>
			<path fill="#FFFFFF" d="M78.641,155.404v-0.615h2.914h1.484c-0.699-0.701-1.219-1.4-1.219-2.326c0-1.387,0.842-2.031,2.578-2.031
				h4.314v0.617h-4.23c-1.43,0-2.102,0.447-2.102,1.541c0,0.799,0.42,1.373,1.262,2.199h5.07v0.615H78.641z"/>
			<path fill="#FFFFFF" d="M82.521,146.811v1.049h-0.477l-0.057-1.064l-1.947-0.084v-0.531h1.947v-1.947h0.533v1.947h4.385
				c0.854,0,1.428-0.211,1.428-1.135c0-0.252-0.098-0.602-0.209-0.84l0.504-0.168c0.139,0.391,0.252,0.811,0.252,1.092
				c0,1.303-0.826,1.682-2.031,1.682H82.521z"/>
		</g>
		<g>
			<path fill="#FFFFFF" d="M136,122.156c0,4.189-3.396,7.586-7.587,7.586h-15.826c-4.19,0-7.587-3.396-7.587-7.586v-15.828
				c0-4.189,3.396-7.586,7.587-7.586h15.826c4.19,0,7.587,3.396,7.587,7.586V122.156z"/>
			<g>
				<path d="M118.293,110.488c0-0.107,0.086-0.201,0.203-0.201h4.326c0.115,0,0.201,0.094,0.201,0.201v0.871
					c0,0.107-0.086,0.203-0.201,0.203h-3.146v1.996h2.625c0.105,0,0.201,0.096,0.201,0.203v0.871c0,0.105-0.096,0.201-0.201,0.201
					h-2.625v2.689c0,0.105-0.096,0.201-0.203,0.201h-0.977c-0.117,0-0.203-0.096-0.203-0.201V110.488z"/>
			</g>
		</g>
		<g>
			<path fill="#FFFFFF" d="M136,87.156c0,4.189-3.396,7.586-7.587,7.586h-15.826c-4.19,0-7.587-3.396-7.587-7.586V71.328
				c0-4.189,3.396-7.586,7.587-7.586h15.826c4.19,0,7.587,3.396,7.587,7.586V87.156z"/>
			<g>
				<path d="M117.668,75.08c0-0.107,0.086-0.203,0.203-0.203h3.039c1.274,0,2.316,1.021,2.316,2.285
					c0,0.979-0.648,1.775-1.572,2.146l1.455,2.699c0.076,0.139,0,0.309-0.182,0.309h-1.115c-0.094,0-0.148-0.053-0.168-0.096
					l-1.414-2.816h-1.18v2.709c0,0.107-0.096,0.203-0.203,0.203h-0.977c-0.117,0-0.203-0.096-0.203-0.203V75.08z M120.793,78.268
					c0.563,0,1.053-0.488,1.053-1.084c0-0.562-0.489-1.031-1.053-1.031h-1.732v2.115H120.793z"/>
			</g>
		</g>
		<g>
			<path fill="#FFFFFF" d="M117.729,174.434c0-0.812,0.309-1.359,0.826-2.031l-1.232,0.027h-2.773v-0.615h10.072v0.531l-0.869,0.057
				v0.041c0.547,0.547,1.037,1.289,1.037,2.186c0,1.695-1.246,2.787-3.516,2.787C119.102,177.416,117.729,176.029,117.729,174.434z
				 M124.242,174.545c0-0.742-0.393-1.4-1.105-2.115h-3.992c-0.631,0.715-0.869,1.303-0.869,1.961c0,1.346,1.303,2.367,2.998,2.367
				C123.053,176.758,124.242,175.975,124.242,174.545z"/>
			<path fill="#FFFFFF" d="M117.729,165.738c0-1.625,1.289-3.025,3.545-3.025c2.227,0,3.516,1.4,3.516,3.025
				c0,1.611-1.289,3.012-3.516,3.012C119.018,168.75,117.729,167.35,117.729,165.738z M124.242,165.738
				c0-1.357-1.205-2.381-2.969-2.381c-1.779,0-2.998,1.023-2.998,2.381c0,1.359,1.219,2.367,2.998,2.367
				C123.037,168.105,124.242,167.098,124.242,165.738z"/>
			<path fill="#FFFFFF" d="M117.896,160.604v-0.674l4.357-1.203c0.615-0.168,1.189-0.322,1.793-0.463v-0.057
				c-0.604-0.154-1.178-0.322-1.793-0.49l-4.357-1.219v-0.742l4.357-1.219c0.615-0.168,1.189-0.336,1.793-0.504v-0.057
				c-0.604-0.154-1.178-0.322-1.793-0.477l-4.357-1.189v-0.631l6.725,1.934v0.812l-4.174,1.176c-0.645,0.197-1.262,0.322-1.92,0.52
				v0.055c0.658,0.154,1.303,0.322,1.947,0.533l4.146,1.162v0.742L117.896,160.604z"/>
			<path fill="#FFFFFF" d="M117.896,149.01v-0.533l1.037-0.055v-0.043c-0.686-0.686-1.205-1.387-1.205-2.311
				c0-1.387,0.842-2.031,2.578-2.031h4.314v0.615h-4.23c-1.43,0-2.102,0.449-2.102,1.541c0,0.799,0.42,1.373,1.262,2.199h5.07v0.617
				H117.896z"/>
		</g>
		<g>
			<path fill="#FFFFFF" d="M114.871,47.896v-0.617h4.23c1.429,0,2.101-0.447,2.101-1.527c0-0.797-0.419-1.387-1.372-2.17h-4.959
				v-0.617h6.723v0.518l-1.121,0.07v0.029c0.771,0.658,1.289,1.357,1.289,2.283c0,1.387-0.839,2.031-2.576,2.031H114.871z"/>
			<path fill="#FFFFFF" d="M122.183,38.725h2.452v0.617h-9.764v-0.533l0.84-0.055v-0.043c-0.518-0.658-1.008-1.457-1.008-2.283
				c0-1.793,1.345-2.689,3.432-2.689c2.283,0,3.627,1.387,3.627,2.971c0,0.629-0.307,1.316-0.825,2.016H122.183z M121.217,36.736
				c0-1.359-1.261-2.34-3.082-2.34c-1.652,0-2.886,0.588-2.886,2.129c0,0.674,0.392,1.387,1.106,2.199h3.992
				C120.979,37.955,121.217,37.254,121.217,36.736z"/>
		</g>
		<g>
			<path fill="#FFFFFF" d="M66,122.156c0,4.189-3.396,7.586-7.586,7.586H42.586c-4.189,0-7.586-3.396-7.586-7.586v-15.828
				c0-4.189,3.396-7.586,7.586-7.586h15.828c4.189,0,7.586,3.396,7.586,7.586V122.156z"/>
			<g>
				<path d="M48.736,116.186l0.383-0.658c0.084-0.15,0.266-0.15,0.361-0.074c0.053,0.031,0.914,0.658,1.604,0.658
					c0.553,0,0.967-0.361,0.967-0.818c0-0.543-0.455-0.914-1.35-1.275c-0.998-0.404-1.996-1.043-1.996-2.295
					c0-0.945,0.701-2.041,2.391-2.041c1.084,0,1.912,0.553,2.125,0.713c0.107,0.064,0.139,0.244,0.064,0.35l-0.404,0.605
					c-0.086,0.129-0.246,0.215-0.373,0.129c-0.084-0.055-0.893-0.584-1.477-0.584c-0.605,0-0.936,0.402-0.936,0.742
					c0,0.5,0.395,0.84,1.256,1.191c1.029,0.414,2.221,1.031,2.221,2.4c0,1.096-0.947,2.105-2.445,2.105
					c-1.34,0-2.125-0.627-2.338-0.828C48.693,116.408,48.641,116.355,48.736,116.186z"/>
			</g>
		</g>
		<g>
			<path fill="#FFFFFF" d="M66,86.924c0,4.189-3.238,7.818-7.428,7.818H42.744c-4.189,0-7.744-3.629-7.744-7.818V71.098
				c0-4.191,3.555-7.355,7.744-7.355h15.828c4.189,0,7.428,3.164,7.428,7.355V86.924z"/>
			<g>
				<path d="M46.104,75.523c-0.041-0.148,0.043-0.256,0.191-0.256h0.979c0.086,0,0.17,0.074,0.191,0.148l1.105,4.24h0.043
					l1.688-4.377c0.021-0.064,0.074-0.117,0.182-0.117h0.191c0.105,0,0.16,0.053,0.18,0.117l1.701,4.377h0.043l1.084-4.24
					c0.02-0.074,0.105-0.148,0.191-0.148h0.977c0.148,0,0.234,0.107,0.191,0.256l-2.008,7.141c-0.021,0.084-0.105,0.148-0.191,0.148
					H52.67c-0.094,0-0.158-0.053-0.178-0.117l-1.902-4.812h-0.055l-1.881,4.812c-0.031,0.064-0.074,0.117-0.18,0.117h-0.17
					c-0.086,0-0.17-0.064-0.191-0.148L46.104,75.523z"/>
			</g>
		</g>
		<g>
			<path fill="#FFFFFF" d="M44.699,204.336v-0.615h2.914l1.316,0.027c-0.574-0.686-1.051-1.498-1.051-2.324
				c0-1.793,1.346-2.689,3.432-2.689c2.283,0,3.629,1.387,3.629,2.969c0,0.645-0.309,1.387-0.799,2.018v0.027l0.631,0.07v0.518
				H44.699z M54.393,201.73c0-1.357-1.26-2.338-3.082-2.338c-1.652,0-2.885,0.588-2.885,2.129c0,0.672,0.393,1.4,1.105,2.199h3.992
				C54.154,202.979,54.393,202.25,54.393,201.73z"/>
			<path fill="#FFFFFF" d="M50.555,191.916c-1.023-0.027-2.129,0.268-2.129,1.584c0,0.91,0.447,1.695,0.785,2.143l-0.463,0.279
				c-0.336-0.475-0.869-1.4-0.869-2.492c0-1.598,1.148-2.129,2.592-2.129h4.301v0.518l-0.869,0.07v0.027
				c0.547,0.688,1.037,1.5,1.037,2.383c0,1.064-0.574,1.961-1.85,1.961C51.605,196.26,50.891,194.9,50.555,191.916z M54.406,194.199
				c0-0.77-0.377-1.457-1.092-2.283h-2.283c0.322,2.76,0.967,3.699,2.031,3.699C54.029,195.615,54.406,194.971,54.406,194.199z"/>
			<path fill="#FFFFFF" d="M47.879,185.338c0-0.926,0.406-1.527,0.826-1.977l0.436,0.365c-0.406,0.434-0.715,0.938-0.715,1.596
				c0,1.373,1.219,2.438,2.998,2.438c1.764,0,2.969-0.965,2.969-2.438c0-0.713-0.35-1.33-0.77-1.793l0.42-0.32
				c0.518,0.574,0.896,1.287,0.896,2.143c0,1.736-1.289,3.053-3.516,3.053C49.168,188.404,47.879,186.977,47.879,185.338z"/>
			<path fill="#FFFFFF" d="M44.699,180.508v-0.617h7.424v-0.027l-4.076-3.32v-0.713l2.662,2.184l4.062-2.549v0.686l-3.6,2.229
				l1.764,1.512h1.836v0.617H44.699z"/>
			<path fill="#FFFFFF" d="M48.047,173.914v-0.672l4.357-1.205c0.615-0.168,1.189-0.322,1.793-0.463v-0.055
				c-0.604-0.154-1.178-0.322-1.793-0.49l-4.357-1.219v-0.742l4.357-1.219c0.615-0.168,1.189-0.336,1.793-0.504v-0.057
				c-0.604-0.154-1.178-0.322-1.793-0.477l-4.357-1.191v-0.629l6.725,1.932v0.812l-4.174,1.178c-0.645,0.195-1.262,0.322-1.92,0.518
				v0.057c0.658,0.154,1.303,0.322,1.947,0.531l4.146,1.164v0.742L48.047,173.914z"/>
			<path fill="#FFFFFF" d="M50.555,158.498c-1.023-0.029-2.129,0.266-2.129,1.582c0,0.91,0.447,1.695,0.785,2.145l-0.463,0.279
				c-0.336-0.477-0.869-1.4-0.869-2.494c0-1.596,1.148-2.129,2.592-2.129h4.301v0.52l-0.869,0.068v0.029
				c0.547,0.686,1.037,1.498,1.037,2.381c0,1.064-0.574,1.961-1.85,1.961C51.605,162.84,50.891,161.48,50.555,158.498z
				 M54.406,160.781c0-0.771-0.377-1.457-1.092-2.283h-2.283c0.322,2.76,0.967,3.697,2.031,3.697
				C54.029,162.195,54.406,161.551,54.406,160.781z"/>
			<path fill="#FFFFFF" d="M48.047,154.426v-0.533l1.248-0.055v-0.043c-0.828-0.447-1.416-1.105-1.416-1.904
				c0-0.252,0.029-0.449,0.141-0.672l0.561,0.139c-0.084,0.225-0.113,0.352-0.113,0.617c0,0.602,0.463,1.316,1.725,1.834h4.58v0.617
				H48.047z"/>
			<path fill="#FFFFFF" d="M47.879,146.656c0-0.812,0.309-1.359,0.826-2.031l-1.232,0.027h-2.773v-0.615h10.072v0.531l-0.869,0.057
				v0.041c0.547,0.547,1.037,1.289,1.037,2.186c0,1.695-1.246,2.787-3.516,2.787C49.252,149.639,47.879,148.252,47.879,146.656z
				 M54.393,146.768c0-0.742-0.393-1.4-1.105-2.115h-3.992c-0.631,0.715-0.869,1.303-0.869,1.961c0,1.346,1.303,2.367,2.998,2.367
				C53.203,148.98,54.393,148.197,54.393,146.768z"/>
		</g>
		<g>
			<path fill="#FFFFFF" d="M45.344,45.221c-0.141,0.279-0.195,0.561-0.195,0.812c0,0.715,0.561,1.051,1.525,1.051h1.457v-1.555
				h0.533v1.555h6.191v0.615h-6.191v0.926h-0.477l-0.057-0.926h-1.498c-1.33,0-2.018-0.602-2.018-1.666
				c0-0.309,0.084-0.672,0.225-0.98L45.344,45.221z"/>
			<path fill="#FFFFFF" d="M47.963,40.754c0-1.625,1.289-3.025,3.545-3.025c2.227,0,3.516,1.4,3.516,3.025
				c0,1.611-1.289,3.012-3.516,3.012C49.252,43.766,47.963,42.365,47.963,40.754z M54.477,40.754c0-1.357-1.205-2.381-2.969-2.381
				c-1.779,0-2.998,1.023-2.998,2.381c0,1.359,1.219,2.367,2.998,2.367C53.271,43.121,54.477,42.113,54.477,40.754z"/>
			<path fill="#FFFFFF" d="M48.131,34.666v-0.533l1.248-0.055v-0.043c-0.828-0.447-1.416-1.105-1.416-1.904
				c0-0.252,0.029-0.449,0.141-0.672l0.561,0.139c-0.084,0.225-0.113,0.352-0.113,0.617c0,0.602,0.463,1.316,1.725,1.834h4.58v0.617
				H48.131z"/>
			<path fill="#FFFFFF" d="M48.131,29.879v-0.672l4.357-1.205c0.615-0.168,1.189-0.322,1.793-0.463v-0.055
				c-0.604-0.154-1.178-0.322-1.793-0.49l-4.357-1.219v-0.742l4.357-1.219c0.615-0.168,1.189-0.336,1.793-0.504v-0.057
				c-0.604-0.154-1.178-0.322-1.793-0.477l-4.357-1.191v-0.629l6.725,1.932v0.812l-4.174,1.178c-0.645,0.195-1.262,0.322-1.92,0.518
				v0.057c0.658,0.154,1.303,0.322,1.947,0.531l4.146,1.164v0.742L48.131,29.879z"/>
			<path fill="#FFFFFF" d="M50.639,14.463c-1.023-0.029-2.129,0.266-2.129,1.582c0,0.91,0.447,1.695,0.785,2.145l-0.463,0.279
				c-0.336-0.477-0.869-1.4-0.869-2.494c0-1.596,1.148-2.129,2.592-2.129h4.301v0.52l-0.869,0.068v0.029
				c0.547,0.686,1.037,1.498,1.037,2.381c0,1.064-0.574,1.961-1.85,1.961C51.689,18.805,50.975,17.445,50.639,14.463z M54.49,16.746
				c0-0.771-0.377-1.457-1.092-2.283h-2.283c0.322,2.76,0.967,3.697,2.031,3.697C54.113,18.16,54.49,17.516,54.49,16.746z"/>
			<path fill="#FFFFFF" d="M48.131,10.391V9.857l1.248-0.055V9.76c-0.828-0.447-1.416-1.105-1.416-1.904
				c0-0.252,0.029-0.449,0.141-0.672l0.561,0.139c-0.084,0.225-0.113,0.352-0.113,0.617c0,0.602,0.463,1.316,1.725,1.834h4.58v0.617
				H48.131z"/>
			<path fill="#FFFFFF" d="M47.963,2.619c0-0.812,0.309-1.357,0.826-2.031l-1.232,0.029h-2.773V0h10.072v0.533l-0.869,0.055v0.043
				c0.547,0.545,1.037,1.289,1.037,2.186c0,1.693-1.246,2.787-3.516,2.787C49.336,5.604,47.963,4.217,47.963,2.619z M54.477,2.732
				c0-0.744-0.393-1.402-1.105-2.115h-3.992C48.748,1.33,48.51,1.92,48.51,2.578c0,1.344,1.303,2.367,2.998,2.367
				C53.287,4.945,54.477,4.16,54.477,2.732z"/>
		</g>
	</g>
	<g>
		<path fill="#FFFFFF" d="M165.06,101.205h-6.022v-2.053h6.022v-6.451h2.151v6.451h6.021v2.053h-6.021v6.451h-2.151V101.205z"/>
	</g>
	<path fill="#FFFFFF" d="M272.15,82.742c-0.16-21-17.105-37.701-37.992-37.701s-37.832,16.701-37.992,37.701H196v57h0.183
		c0.511,20,17.312,37.039,37.976,37.039s37.464-17.039,37.976-37.039H272v-57H272.15z"/>
	<path fill="none" stroke="#E8E8E8" stroke-miterlimit="10" d="M233.5,93.742V44.037c0,0,3.829-10.172-5.921-19.711
		s3.21-18.687,6.46-22.437"/>
	<line fill="none" stroke="#E2E2E2" stroke-miterlimit="10" x1="196" y1="94.242" x2="272" y2="94.242"/>
</g>
</svg>
