<?xml version="1.0" encoding="utf-8"?>
<!-- Generator: Adobe Illustrator 16.0.0, SVG Export Plug-In . SVG Version: 6.00 Build 0)  -->
<!DOCTYPE svg PUBLIC "-//W3C//DTD SVG 1.1//EN" "http://www.w3.org/Graphics/SVG/1.1/DTD/svg11.dtd">
<svg version="1.1" xmlns="http://www.w3.org/2000/svg" xmlns:xlink="http://www.w3.org/1999/xlink" x="0px" y="0px" width="90px"
	 height="30px" viewBox="0 0 90 30" enable-background="new 0 0 90 30" xml:space="preserve">
<g id="Background">
</g>
<g id="UID_background">
	<g>
		
			<rect x="1" y="1" fill-rule="evenodd" clip-rule="evenodd" fill="none" stroke="#FFFFFF" stroke-width="2" stroke-miterlimit="10" width="88" height="28"/>
		<g>
			<path fill="#FFFFFF" d="M25.355,10.434h2.578c2.787,0,4.58,1.387,4.58,4.524s-1.793,4.608-4.469,4.608h-2.689V10.434z
				 M27.809,17.899c1.555,0,2.59-0.757,2.59-2.941s-1.035-2.857-2.59-2.857h-0.393v5.799H27.809z"/>
			<path fill="#FFFFFF" d="M35.646,10.434h5.715v1.736h-3.656v1.836h3.109v1.723h-3.109v2.102h3.797v1.736h-5.855V10.434z"/>
			<path fill="#FFFFFF" d="M44.717,10.434h2.186l1.527,4.104l0.547,1.598h0.055l0.547-1.598l1.484-4.104h2.172v9.133h-1.92v-3.348
				c0-0.896,0.168-2.228,0.268-3.109h-0.057l-0.756,2.115l-1.4,3.543h-0.828l-1.4-3.543l-0.729-2.115h-0.055
				c0.098,0.882,0.252,2.213,0.252,3.109v3.348h-1.893V10.434z"/>
			<path fill="#FFFFFF" d="M56.352,14.958c0-2.983,1.682-4.692,4.146-4.692s4.146,1.723,4.146,4.692
				c0,2.983-1.682,4.776-4.146,4.776S56.352,17.941,56.352,14.958z M62.529,14.958c0-1.821-0.785-2.913-2.031-2.913
				s-2.031,1.092-2.031,2.913c0,1.835,0.785,2.997,2.031,2.997S62.529,16.793,62.529,14.958z"/>
		</g>
	</g>
</g>
<g id="UID">
</g>
<g id="Option_2">
</g>
</svg>
