<?xml version="1.0" encoding="utf-8"?>
<!-- Generator: Adobe Illustrator 16.0.0, SVG Export Plug-In . SVG Version: 6.00 Build 0)  -->
<!DOCTYPE svg PUBLIC "-//W3C//DTD SVG 1.1//EN" "http://www.w3.org/Graphics/SVG/1.1/DTD/svg11.dtd">
<svg version="1.1" id="Layer_1" xmlns="http://www.w3.org/2000/svg" xmlns:xlink="http://www.w3.org/1999/xlink" x="0px" y="0px"
	 width="98.674px" height="98.674px" viewBox="0 0 98.674 98.674" enable-background="new 0 0 98.674 98.674" xml:space="preserve">
<g>
	<path fill="#FFFFFF" d="M83.344,34.815c4.345,4.7,6.52,10.396,6.52,17.092c0,4.347-0.501,8.254-1.498,11.718
		c-1,3.466-2.263,6.285-3.789,8.458c-1.528,2.175-3.408,4.083-5.638,5.727c-2.233,1.646-4.29,2.85-6.167,3.612
		c-1.88,0.766-4.025,1.352-6.431,1.762c-2.409,0.413-4.229,0.647-5.462,0.705c-1.233,0.061-2.555,0.088-3.965,0.088
		c-0.352,0-1.41,0.03-3.171,0.088c-1.762,0.061-3.232,0.088-4.405,0.088c-1.175,0-2.643-0.027-4.405-0.088
		c-1.762-0.058-2.819-0.088-3.172-0.088c-1.41,0-2.731-0.028-3.964-0.088c-1.233-0.058-3.056-0.292-5.462-0.705
		c-2.409-0.41-4.554-0.997-6.432-1.762c-1.88-0.763-3.937-1.966-6.167-3.612c-2.233-1.644-4.113-3.551-5.639-5.727
		c-1.528-2.172-2.792-4.991-3.788-8.458c-1-3.464-1.498-7.371-1.498-11.718c0-6.696,2.172-12.392,6.52-17.092
		c-0.471-0.234-0.501-2.583-0.088-7.048c0.41-4.463,1.379-8.574,2.907-12.334c5.402,0.589,12.098,3.643,20.087,9.163
		c2.701-0.705,6.401-1.057,11.101-1.057c4.934,0,8.634,0.353,11.101,1.057c3.64-2.467,7.136-4.463,10.484-5.991
		c3.348-1.525,5.785-2.406,7.312-2.643l2.291-0.529c1.525,3.761,2.495,7.872,2.908,12.334
		C83.843,32.233,83.812,34.582,83.344,34.815z M49.513,80.1c9.749,0,17.119-1.173,22.114-3.524
		c4.991-2.348,7.488-7.164,7.488-14.449c0-4.229-1.585-7.753-4.757-10.572c-1.646-1.525-3.554-2.467-5.727-2.819
		c-2.175-0.353-5.493-0.353-9.956,0c-4.466,0.352-7.519,0.528-9.163,0.528h-0.176h-0.176c-1.88,0-4.317-0.116-7.312-0.353
		c-2.995-0.234-5.347-0.38-7.048-0.44c-1.704-0.058-3.554,0.149-5.55,0.617c-1.999,0.471-3.643,1.294-4.934,2.467
		c-3.056,2.704-4.581,6.228-4.581,10.572c0,7.285,2.467,12.101,7.4,14.449c4.934,2.352,12.274,3.524,22.025,3.524H49.513z
		 M35.417,55.431c1.525,0,2.847,0.766,3.964,2.291c1.115,1.528,1.674,3.408,1.674,5.638c0,2.233-0.559,4.113-1.674,5.639
		c-1.118,1.528-2.439,2.291-3.964,2.291c-1.646,0-3.026-0.763-4.141-2.291c-1.118-1.525-1.674-3.406-1.674-5.639
		c0-2.23,0.556-4.11,1.674-5.638C32.391,56.197,33.771,55.431,35.417,55.431z M63.433,55.431c1.525,0,2.847,0.766,3.965,2.291
		c1.115,1.528,1.674,3.408,1.674,5.638c0,2.233-0.559,4.113-1.674,5.639c-1.118,1.528-2.439,2.291-3.965,2.291
		c-1.646,0-3.025-0.763-4.141-2.291c-1.118-1.525-1.674-3.406-1.674-5.639c0-2.23,0.556-4.11,1.674-5.638
		C60.408,56.197,61.787,55.431,63.433,55.431z"/>
</g>
<g>
</g>
<g>
</g>
<g>
</g>
<g>
</g>
<g>
</g>
<g>
</g>
</svg>
