<?xml version="1.0" encoding="utf-8"?>
<!-- Generator: Adobe Illustrator 16.0.0, SVG Export Plug-In . SVG Version: 6.00 Build 0)  -->
<!DOCTYPE svg PUBLIC "-//W3C//DTD SVG 1.1//EN" "http://www.w3.org/Graphics/SVG/1.1/DTD/svg11.dtd">
<svg version="1.1" xmlns="http://www.w3.org/2000/svg" xmlns:xlink="http://www.w3.org/1999/xlink" x="0px" y="0px"
	 width="53.221px" height="11.393px" viewBox="0 0 53.221 11.393" enable-background="new 0 0 53.221 11.393" xml:space="preserve">
<g id="Background">
</g>
<g id="UID_background">
	<g opacity="0.3">
		<path fill="#FFFFFF" d="M0,0.719h0.553v7.424h3.646v0.48H0V0.719z"/>
		<path fill="#FFFFFF" d="M8.412,2.722c1.391,0,2.59,1.104,2.59,3.034c0,1.907-1.199,3.011-2.59,3.011
			c-1.379,0-2.578-1.104-2.578-3.011C5.834,3.825,7.033,2.722,8.412,2.722z M8.412,8.299c1.162,0,2.039-1.031,2.039-2.543
			c0-1.523-0.877-2.566-2.039-2.566c-1.164,0-2.027,1.043-2.027,2.566C6.385,7.268,7.248,8.299,8.412,8.299z"/>
		<path fill="#FFFFFF" d="M16.846,5.013c0.025-0.876-0.227-1.823-1.354-1.823c-0.781,0-1.451,0.384-1.836,0.672l-0.24-0.396
			c0.408-0.287,1.199-0.743,2.135-0.743c1.367,0,1.824,0.983,1.824,2.219v3.683H16.93l-0.059-0.744h-0.025
			c-0.586,0.468-1.283,0.888-2.037,0.888c-0.912,0-1.68-0.491-1.68-1.583C13.129,5.912,14.293,5.301,16.846,5.013z M14.893,8.311
			c0.658,0,1.246-0.324,1.953-0.936V5.42c-2.361,0.276-3.166,0.828-3.166,1.739C13.68,7.986,14.232,8.311,14.893,8.311z"/>
		<path fill="#FFFFFF" d="M22.416,2.722c0.695,0,1.162,0.265,1.738,0.708l-0.023-1.056V0h0.527v8.623h-0.457l-0.047-0.744h-0.037
			c-0.467,0.468-1.102,0.888-1.869,0.888c-1.451,0-2.387-1.067-2.387-3.011C19.861,3.896,21.047,2.722,22.416,2.722z M22.318,8.299
			c0.637,0,1.199-0.336,1.812-0.947V3.934c-0.613-0.54-1.115-0.744-1.68-0.744c-1.152,0-2.027,1.115-2.027,2.566
			C20.424,7.279,21.096,8.299,22.318,8.299z"/>
		<path fill="#FFFFFF" d="M27.564,1.007c0-0.3,0.217-0.479,0.48-0.479s0.48,0.18,0.48,0.479c0,0.276-0.217,0.468-0.48,0.468
			S27.564,1.283,27.564,1.007z M27.77,2.865h0.527v5.758H27.77V2.865z"/>
		<path fill="#FFFFFF" d="M31.416,2.865h0.457l0.047,0.889h0.037c0.586-0.588,1.186-1.032,1.979-1.032
			c1.188,0,1.738,0.72,1.738,2.207v3.694h-0.527V5c0-1.223-0.385-1.799-1.32-1.799c-0.684,0-1.174,0.36-1.883,1.08v4.342h-0.527
			V2.865z"/>
		<path fill="#FFFFFF" d="M39.072,8.406V8.359c-0.287-0.168-0.504-0.48-0.504-0.924c0-0.516,0.373-0.876,0.623-1.056V6.332
			c-0.359-0.312-0.719-0.888-0.719-1.584c0-1.187,0.9-2.026,2.027-2.026c0.311,0,0.576,0.072,0.756,0.144h1.955V3.31h-1.344
			c0.371,0.323,0.635,0.839,0.635,1.451c0,1.175-0.875,2.026-2.002,2.026c-0.324,0-0.695-0.084-0.959-0.239
			c-0.252,0.204-0.469,0.444-0.469,0.827c0,0.42,0.24,0.756,1.104,0.756h1.234c1.297,0,1.896,0.408,1.896,1.319
			c0,0.995-1.068,1.942-2.723,1.942c-1.451,0-2.363-0.623-2.363-1.595C38.221,9.295,38.545,8.791,39.072,8.406z M40.643,10.961
			c1.297,0,2.123-0.731,2.123-1.451c0-0.635-0.467-0.875-1.33-0.875h-1.236c-0.119,0-0.42-0.024-0.719-0.096
			c-0.527,0.359-0.756,0.803-0.756,1.211C38.725,10.47,39.42,10.961,40.643,10.961z M41.986,4.748c0-0.971-0.672-1.594-1.486-1.594
			c-0.816,0-1.5,0.611-1.5,1.594c0,0.973,0.695,1.619,1.5,1.619C41.291,6.367,41.986,5.721,41.986,4.748z"/>
		<path fill="#FFFFFF" d="M45.66,7.676c0.264,0,0.504,0.203,0.504,0.551c0,0.336-0.24,0.54-0.504,0.54s-0.516-0.204-0.516-0.54
			C45.145,7.879,45.396,7.676,45.66,7.676z"/>
		<path fill="#FFFFFF" d="M49.188,7.676c0.264,0,0.504,0.203,0.504,0.551c0,0.336-0.24,0.54-0.504,0.54s-0.516-0.204-0.516-0.54
			C48.672,7.879,48.924,7.676,49.188,7.676z"/>
		<path fill="#FFFFFF" d="M52.717,7.676c0.264,0,0.504,0.203,0.504,0.551c0,0.336-0.24,0.54-0.504,0.54s-0.516-0.204-0.516-0.54
			C52.201,7.879,52.453,7.676,52.717,7.676z"/>
	</g>
</g>
<g id="UID">
</g>
<g id="Option_2">
</g>
</svg>
