<?xml version="1.0" encoding="utf-8"?>
<!-- Generator: Adobe Illustrator 16.0.0, SVG Export Plug-In . SVG Version: 6.00 Build 0)  -->
<!DOCTYPE svg PUBLIC "-//W3C//DTD SVG 1.1//EN" "http://www.w3.org/Graphics/SVG/1.1/DTD/svg11.dtd">
<svg version="1.1" xmlns="http://www.w3.org/2000/svg" xmlns:xlink="http://www.w3.org/1999/xlink" x="0px" y="0px"
	 width="184.348px" height="62.258px" viewBox="0 0 184.348 62.258" enable-background="new 0 0 184.348 62.258"
	 xml:space="preserve">
<g id="Background">
</g>
<g id="UID_background">
	<g>
		<g>
			<path fill="#FFFFFF" d="M15.179,0c4.22,0,7.27,1.336,10.11,3.885c0.376,0.334,0.376,0.836,0.042,1.17l-2.549,2.632
				c-0.292,0.335-0.71,0.335-1.044,0c-1.755-1.546-4.095-2.465-6.434-2.465c-5.348,0-9.317,4.47-9.317,9.734
				c0,5.222,4.011,9.651,9.358,9.651c2.507,0,4.638-0.961,6.393-2.382c0.334-0.292,0.794-0.251,1.044,0l2.591,2.674
				c0.334,0.292,0.251,0.835-0.042,1.128c-2.841,2.758-6.434,4.053-10.152,4.053c-8.355,0-15.082-6.643-15.082-14.998
				C0.097,6.726,6.823,0,15.179,0z"/>
			<path fill="#FFFFFF" d="M34.983,1.211c0-0.418,0.376-0.794,0.794-0.794h3.886c0.417,0,0.793,0.376,0.793,0.794v27.657
				c0,0.418-0.376,0.794-0.793,0.794h-3.886c-0.418,0-0.794-0.376-0.794-0.794V1.211z"/>
			<path fill="#FFFFFF" d="M56.166,5.431h-6.393c-0.46,0-0.794-0.376-0.794-0.794V1.211c0-0.418,0.334-0.794,0.794-0.794H68.03
				c0.46,0,0.794,0.376,0.794,0.794v3.426c0,0.418-0.334,0.794-0.794,0.794h-6.392v23.438c0,0.418-0.376,0.794-0.794,0.794h-3.886
				c-0.417,0-0.793-0.376-0.793-0.794V5.431z"/>
			<path fill="#FFFFFF" d="M84.325,15.582L74.8,1.629c-0.335-0.543,0-1.212,0.668-1.212h4.262c0.334,0,0.543,0.209,0.668,0.376
				l6.685,9.609l6.685-9.609c0.126-0.167,0.335-0.376,0.669-0.376h4.303c0.669,0,1.003,0.669,0.669,1.212l-9.651,13.912v13.327
				c0,0.418-0.376,0.794-0.794,0.794h-3.843c-0.46,0-0.794-0.376-0.794-0.794V15.582z"/>
			<path fill="#FFFFFF" d="M120.675,1.211c0-0.418,0.376-0.794,0.794-0.794h3.886c0.417,0,0.793,0.376,0.793,0.794v27.657
				c0,0.418-0.376,0.794-0.793,0.794h-3.886c-0.418,0-0.794-0.376-0.794-0.794V1.211z"/>
			<path fill="#FFFFFF" d="M143.277,0.961c0.083-0.293,0.418-0.544,0.752-0.544h3.008c0.585,0,0.919,0.46,0.752,1.044l-8.146,27.658
				c-0.084,0.293-0.46,0.543-0.752,0.543h-3.05c-0.543,0-0.919-0.459-0.752-1.045L143.277,0.961z"/>
			<path fill="#FFFFFF" d="M169.308,0c8.355,0,15.04,6.726,15.04,15.082c0,8.355-6.685,14.998-15.04,14.998
				c-8.356,0-14.999-6.643-14.999-14.998C154.309,6.726,160.951,0,169.308,0z M169.308,24.648c5.264,0,9.608-4.303,9.608-9.566
				c0-5.265-4.345-9.651-9.608-9.651c-5.265,0-9.567,4.387-9.567,9.651C159.74,20.346,164.043,24.648,169.308,24.648z"/>
		</g>
		<g>
			<g>
				<path fill="#FFFFFF" d="M0,43.15c0-1.746,1.156-2.793,1.569-3.033c0.153-0.087,0.285-0.108,0.372,0l0.173,0.219
					c0.088,0.109,0.066,0.24-0.086,0.349c-0.109,0.087-1.091,0.741-1.223,2.073c-0.021,0.326,0.021,0.61,0.11,0.828
					c0.109-0.066,0.218-0.109,0.349-0.109c0.566,0,0.873,0.415,0.873,0.873c0,0.523-0.372,0.85-0.916,0.85
					C0.589,45.199,0,44.59,0,43.15z"/>
			</g>
			<g>
				<path fill="#FFFFFF" d="M5.822,54.428l0.219-0.35c0.065-0.109,0.24-0.152,0.393-0.021c0.218,0.174,1.112,0.85,2.335,0.85
					c1.242,0,2.093-0.697,2.093-1.548c0-1.004-0.981-1.418-2.441-1.964c-1.55-0.545-2.684-1.221-2.684-2.573
					c0-0.96,0.851-2.269,2.857-2.269c1.156,0,2.028,0.414,2.465,0.697c0.131,0.088,0.174,0.262,0.087,0.415l-0.131,0.24
					c-0.088,0.152-0.262,0.196-0.416,0.108c-0.195-0.131-1.068-0.611-2.005-0.611c-1.374,0-1.876,0.809-1.876,1.397
					c0,0.872,0.785,1.286,2.072,1.745c1.636,0.61,3.074,1.156,3.074,2.748c0,1.309-1.352,2.421-3.096,2.421
					c-1.484,0-2.379-0.61-2.857-0.981C5.822,54.667,5.758,54.536,5.822,54.428z"/>
			</g>
			<g>
				<path fill="#FFFFFF" d="M17.296,50.174v-0.24c0-0.175,0.109-0.283,0.262-0.283h4.93c0.152,0,0.283,0.108,0.283,0.283v0.24
					c0,0.152-0.131,0.283-0.283,0.283h-4.93C17.405,50.457,17.296,50.326,17.296,50.174z"/>
			</g>
			<g>
				<path fill="#FFFFFF" d="M29.073,40.511c0-0.153,0.132-0.283,0.284-0.283h0.457c0.175,0,0.284,0.13,0.284,0.283v6.696h9.795
					v-6.696c0-0.153,0.131-0.283,0.283-0.283h0.458c0.174,0,0.282,0.13,0.282,0.283v14.702c0,0.152-0.108,0.283-0.282,0.283h-0.458
					c-0.152,0-0.283-0.131-0.283-0.283v-7.09h-9.795v7.09c0,0.152-0.109,0.283-0.284,0.283h-0.457c-0.152,0-0.284-0.131-0.284-0.283
					V40.511z"/>
			</g>
			<g>
				<path fill="#FFFFFF" d="M50.361,46.553c2.29,0,3.948,1.68,3.948,3.992c0,0.349,0,0.85-0.328,0.85h-6.958
					c0.088,1.877,1.44,3.447,3.403,3.447c1.156,0,2.049-0.458,2.574-0.807c0.195-0.132,0.283-0.153,0.393,0l0.217,0.305
					c0.066,0.088,0.045,0.218-0.087,0.35c-0.436,0.436-1.81,1.024-3.162,1.024c-2.661,0-4.298-2.05-4.298-4.603
					C46.063,48.625,47.7,46.553,50.361,46.553z M53.349,50.609c0-1.701-1.023-3.185-2.987-3.185c-1.92,0-3.206,1.396-3.315,3.185
					H53.349z"/>
			</g>
			<g>
				<path fill="#FFFFFF" d="M59.062,47.055c0-0.153,0.13-0.284,0.283-0.284h0.263c0.131,0,0.239,0.087,0.261,0.24l0.087,0.895
					c0.22-0.306,1.092-1.353,2.727-1.353c0.699,0,1.18,0.196,1.354,0.262c0.196,0.064,0.306,0.218,0.239,0.393l-0.174,0.437
					c-0.065,0.152-0.196,0.175-0.349,0.108c-0.109-0.043-0.546-0.262-1.135-0.262c-1.701,0-2.53,1.375-2.596,1.506v6.217
					c0,0.174-0.087,0.283-0.283,0.283h-0.438c-0.151,0-0.239-0.131-0.239-0.283V47.055z"/>
			</g>
			<g>
				<path fill="#FFFFFF" d="M68.681,47.621h-1.024c-0.219,0-0.262-0.109-0.262-0.283v-0.349c0-0.153,0.109-0.219,0.262-0.219h1.024
					v-2.378c0-0.174,0.132-0.283,0.284-0.283l0.371-0.021c0.152,0,0.283,0.131,0.283,0.283v2.399h3.031
					c0.176,0,0.285,0.131,0.285,0.284v0.283c0,0.174-0.109,0.283-0.285,0.283h-3.031v5.562c0,1.025,0.108,1.593,1.136,1.593
					c0.763,0,1.699-0.415,1.982-0.589c0.198-0.109,0.284-0.022,0.351,0.088l0.152,0.261c0.087,0.153,0.065,0.283-0.065,0.37
					c-0.327,0.262-1.287,0.808-2.529,0.808c-1.812,0-1.965-1.069-1.965-2.464V47.621z"/>
			</g>
			<g>
				<path fill="#FFFFFF" d="M81.396,46.553c2.444,0,4.385,2.072,4.385,4.559c0,2.553-1.94,4.603-4.385,4.603
					c-2.465,0-4.384-2.05-4.384-4.603C77.013,48.625,78.932,46.553,81.396,46.553z M81.396,54.819c1.92,0,3.426-1.636,3.426-3.708
					c0-2.007-1.506-3.643-3.426-3.643c-1.94,0-3.446,1.636-3.446,3.643C77.95,53.184,79.456,54.819,81.396,54.819z"/>
			</g>
			<g>
				<path fill="#FFFFFF" d="M91.168,52.42c-0.24-0.305-0.677-1.135-0.677-2.182c0-2.094,1.463-3.686,3.817-3.686
					c0.545,0,0.545,0,3.577,0c0.175,0,0.283,0.131,0.283,0.283v0.24c0,0.109-0.064,0.24-0.195,0.262l-1.571,0.109
					c0.414,0.218,1.353,0.981,1.353,2.791c0,1.942-1.396,3.622-3.621,3.622c-1.309,0-2.094-0.48-2.378-0.786
					c-0.173,0.066-1.111,0.545-1.111,1.57s0.872,1.266,1.723,1.266h3.163c1.876,0,3.229,0.851,3.229,2.792
					c0,1.854-1.789,3.556-4.45,3.556c-2.966,0-4.254-1.745-4.254-3.229c0-1.287,0.916-2.006,1.376-2.29
					c-0.438-0.087-1.703-0.677-1.703-1.985C89.728,53.293,90.928,52.551,91.168,52.42z M94.288,61.363
					c1.963,0,3.467-1.155,3.467-2.639c0-1.004-0.61-1.92-2.225-1.92h-2.748c-0.219,0.021-1.767,0.633-1.767,2.115
					C91.016,60.12,92.171,61.363,94.288,61.363z M96.839,50.217c0-1.832-1.244-2.792-2.684-2.792c-1.679,0-2.77,1.222-2.77,2.792
					c0,1.527,0.938,2.792,2.77,2.792C95.792,53.009,96.839,51.766,96.839,50.217z"/>
			</g>
			<g>
				<path fill="#FFFFFF" d="M106.544,46.553c2.291,0,3.949,1.68,3.949,3.992c0,0.349,0,0.85-0.327,0.85h-6.959
					c0.089,1.877,1.44,3.447,3.403,3.447c1.155,0,2.051-0.458,2.574-0.807c0.195-0.132,0.283-0.153,0.392,0l0.219,0.305
					c0.065,0.088,0.043,0.218-0.087,0.35c-0.437,0.436-1.812,1.024-3.164,1.024c-2.661,0-4.297-2.05-4.297-4.603
					C102.247,48.625,103.883,46.553,106.544,46.553z M109.532,50.609c0-1.701-1.024-3.185-2.988-3.185
					c-1.918,0-3.206,1.396-3.316,3.185H109.532z"/>
			</g>
			<g>
				<path fill="#FFFFFF" d="M115.246,47.055c0-0.153,0.132-0.284,0.306-0.284h0.218c0.152,0,0.24,0.087,0.263,0.219l0.087,0.938
					c0.284-0.306,1.483-1.374,3.228-1.374c2.443,0,3.512,1.549,3.512,3.992v4.668c0,0.152-0.131,0.283-0.283,0.283h-0.393
					c-0.152,0-0.282-0.131-0.282-0.283v-4.668c0-2.008-0.938-3.055-2.597-3.055c-1.789,0-3.031,1.396-3.119,1.506v6.217
					c0,0.174-0.087,0.283-0.284,0.283h-0.414c-0.153,0-0.24-0.131-0.24-0.283V47.055z"/>
			</g>
			<g>
				<path fill="#FFFFFF" d="M128.225,40.511c0-0.153,0.13-0.283,0.284-0.283h0.369c0.153,0,0.283,0.13,0.283,0.283v6.914
					c0,0,1.048-0.872,2.705-0.872c2.465,0,4.275,1.984,4.275,4.559c0,2.553-1.766,4.603-4.014,4.603
					c-1.68,0-2.771-0.981-3.031-1.286l-0.065,0.785c-0.022,0.196-0.132,0.283-0.307,0.283h-0.216c-0.154,0-0.284-0.131-0.284-0.283
					V40.511z M132.041,54.842c1.833,0,3.163-1.68,3.163-3.709c0-2.072-1.439-3.643-3.447-3.643c-1.57,0-2.573,0.916-2.573,0.916
					v4.887C129.227,53.38,130.165,54.842,132.041,54.842z"/>
			</g>
			<g>
				<path fill="#FFFFFF" d="M144.734,46.553c2.443,0,4.385,2.072,4.385,4.559c0,2.553-1.941,4.603-4.385,4.603
					c-2.465,0-4.385-2.05-4.385-4.603C140.35,48.625,142.27,46.553,144.734,46.553z M144.734,54.819c1.92,0,3.426-1.636,3.426-3.708
					c0-2.007-1.506-3.643-3.426-3.643c-1.94,0-3.445,1.636-3.445,3.643C141.289,53.184,142.794,54.819,144.734,54.819z"/>
			</g>
			<g>
				<path fill="#FFFFFF" d="M153.458,54.428l0.219-0.35c0.064-0.109,0.239-0.152,0.393-0.021c0.219,0.174,1.111,0.85,2.333,0.85
					c1.244,0,2.095-0.697,2.095-1.548c0-1.004-0.981-1.418-2.443-1.964c-1.549-0.545-2.684-1.221-2.684-2.573
					c0-0.96,0.852-2.269,2.858-2.269c1.156,0,2.027,0.414,2.464,0.697c0.133,0.088,0.176,0.262,0.088,0.415l-0.131,0.24
					c-0.088,0.152-0.262,0.196-0.414,0.108c-0.197-0.131-1.068-0.611-2.007-0.611c-1.374,0-1.876,0.809-1.876,1.397
					c0,0.872,0.786,1.286,2.072,1.745c1.637,0.61,3.076,1.156,3.076,2.748c0,1.309-1.354,2.421-3.099,2.421
					c-1.482,0-2.377-0.61-2.856-0.981C153.458,54.667,153.394,54.536,153.458,54.428z"/>
			</g>
			<g>
				<path fill="#FFFFFF" d="M168.138,46.553c1.701,0,2.835,0.872,3.228,1.374c0.108,0.131,0.088,0.284-0.043,0.393l-0.218,0.218
					c-0.153,0.153-0.328,0.088-0.459-0.043c-0.218-0.24-1.134-1.004-2.508-1.004c-1.985,0-3.6,1.549-3.6,3.621
					c0,2.116,1.636,3.687,3.578,3.687c1.636,0,2.486-1.024,2.726-1.287c0.152-0.175,0.284-0.175,0.414-0.044l0.24,0.219
					c0.109,0.109,0.152,0.218,0.065,0.35c-0.326,0.522-1.614,1.679-3.424,1.679c-2.466,0-4.581-1.94-4.581-4.581
					C163.557,48.516,165.672,46.553,168.138,46.553z"/>
			</g>
			<g>
				<path fill="#FFFFFF" d="M176.402,40.511c0-0.153,0.132-0.283,0.306-0.283h0.351c0.151,0,0.282,0.13,0.282,0.283v7.438
					c0.284-0.284,1.44-1.396,3.163-1.396c2.269,0,3.513,1.396,3.513,3.992v4.668c0,0.152-0.131,0.283-0.284,0.283h-0.393
					c-0.153,0-0.284-0.131-0.284-0.283v-4.668c0-2.008-0.938-3.055-2.596-3.055c-1.81,0-3.031,1.418-3.119,1.527v6.195
					c0,0.174-0.088,0.283-0.282,0.283h-0.415c-0.152,0-0.241-0.131-0.241-0.283V40.511z"/>
			</g>
		</g>
	</g>
</g>
<g id="UID">
</g>
<g id="Option_2">
</g>
</svg>
