<?xml version="1.0" encoding="utf-8"?>
<!-- Generator: Adobe Illustrator 16.0.0, SVG Export Plug-In . SVG Version: 6.00 Build 0)  -->
<!DOCTYPE svg PUBLIC "-//W3C//DTD SVG 1.1//EN" "http://www.w3.org/Graphics/SVG/1.1/DTD/svg11.dtd">
<svg version="1.1" xmlns="http://www.w3.org/2000/svg" xmlns:xlink="http://www.w3.org/1999/xlink" x="0px" y="0px"
	 width="483.376px" height="29.394px" viewBox="0 0 483.376 29.394" enable-background="new 0 0 483.376 29.394"
	 xml:space="preserve">
<g id="Background">
</g>
<g id="UID_background">
</g>
<g id="UID">
	<g>
		<path fill="#E5E5E5" d="M106.756,4.642c0-2.495,1.355-4.066,3.251-4.066c1.906,0,3.262,1.571,3.262,4.066
			c0,2.506-1.355,4.125-3.262,4.125C108.111,8.767,106.756,7.147,106.756,4.642z M112.681,4.642c0-2.184-1.067-3.562-2.674-3.562
			c-1.607,0-2.675,1.379-2.675,3.562c0,2.194,1.067,3.622,2.675,3.622C111.613,8.264,112.681,6.836,112.681,4.642z"/>
		<path fill="#E5E5E5" d="M118.023,2.723c1.392,0,2.591,1.103,2.591,3.034c0,1.906-1.199,3.01-2.591,3.01
			c-1.379,0-2.578-1.104-2.578-3.01C115.445,3.825,116.645,2.723,118.023,2.723z M118.023,8.299c1.163,0,2.039-1.031,2.039-2.542
			c0-1.523-0.876-2.566-2.039-2.566s-2.026,1.043-2.026,2.566C115.997,7.268,116.86,8.299,118.023,8.299z"/>
		<path fill="#E5E5E5" d="M123.771,9.127v2.099h-0.527V2.866h0.456l0.048,0.72h0.036c0.563-0.444,1.247-0.863,1.954-0.863
			c1.535,0,2.303,1.151,2.303,2.938c0,1.954-1.187,3.105-2.542,3.105c-0.54,0-1.128-0.264-1.728-0.707V9.127z M125.475,8.299
			c1.163,0,2.003-1.079,2.003-2.638c0-1.416-0.504-2.471-1.823-2.471c-0.575,0-1.187,0.335-1.883,0.947v3.418
			C124.432,8.096,125.031,8.299,125.475,8.299z"/>
		<path fill="#E5E5E5" d="M130.265,7.58c0.492,0.407,1.008,0.731,1.835,0.731c0.899,0,1.367-0.528,1.367-1.14
			c0-0.72-0.743-1.031-1.403-1.271c-0.875-0.312-1.835-0.659-1.835-1.643c0-0.84,0.66-1.535,1.859-1.535
			c0.611,0,1.224,0.252,1.644,0.6l-0.288,0.371c-0.384-0.287-0.792-0.516-1.38-0.516c-0.887,0-1.295,0.516-1.295,1.044
			c0,0.659,0.672,0.911,1.355,1.163c0.899,0.336,1.883,0.636,1.883,1.763c0,0.864-0.695,1.619-1.943,1.619
			c-0.851,0-1.595-0.359-2.11-0.791L130.265,7.58z"/>
		<path fill="#E5E5E5" d="M135.905,10.122c0.539-0.288,0.911-0.791,0.923-1.451c-0.048,0.012-0.096,0.012-0.144,0.012
			c-0.276,0-0.504-0.18-0.504-0.503c0-0.324,0.252-0.504,0.516-0.504c0.359,0,0.611,0.323,0.611,0.852
			c0,0.875-0.516,1.571-1.235,1.955L135.905,10.122z"/>
		<path fill="#E5E5E5" d="M143.045,1.007c0-0.3,0.216-0.479,0.479-0.479c0.265,0,0.48,0.18,0.48,0.479
			c0,0.276-0.216,0.468-0.48,0.468C143.261,1.475,143.045,1.283,143.045,1.007z M143.249,2.866h0.527v5.757h-0.527V2.866z"/>
		<path fill="#E5E5E5" d="M147.028,3.322h-0.899V2.914l0.911-0.048l0.072-1.667h0.456v1.667h1.667v0.456h-1.667v3.754
			c0,0.731,0.18,1.223,0.971,1.223c0.216,0,0.517-0.084,0.72-0.18l0.145,0.432c-0.336,0.12-0.696,0.216-0.936,0.216
			c-1.115,0-1.439-0.707-1.439-1.738V3.322z"/>
		<path fill="#E5E5E5" d="M154.828,0h0.527v7.928c0,0.252,0.108,0.371,0.252,0.371c0.048,0,0.096,0,0.216-0.023l0.096,0.432
			c-0.107,0.036-0.216,0.06-0.384,0.06c-0.468,0-0.707-0.287-0.707-0.911V0z"/>
		<path fill="#E5E5E5" d="M160.671,2.723c1.392,0,2.591,1.103,2.591,3.034c0,1.906-1.199,3.01-2.591,3.01
			c-1.379,0-2.578-1.104-2.578-3.01C158.093,3.825,159.292,2.723,160.671,2.723z M160.671,8.299c1.163,0,2.039-1.031,2.039-2.542
			c0-1.523-0.876-2.566-2.039-2.566s-2.026,1.043-2.026,2.566C158.645,7.268,159.508,8.299,160.671,8.299z"/>
		<path fill="#E5E5E5" d="M167.991,2.723c1.392,0,2.591,1.103,2.591,3.034c0,1.906-1.199,3.01-2.591,3.01
			c-1.379,0-2.578-1.104-2.578-3.01C165.413,3.825,166.612,2.723,167.991,2.723z M167.991,8.299c1.163,0,2.039-1.031,2.039-2.542
			c0-1.523-0.876-2.566-2.039-2.566s-2.026,1.043-2.026,2.566C165.965,7.268,166.828,8.299,167.991,8.299z"/>
		<path fill="#E5E5E5" d="M173.212,0h0.527v6.356h0.024l2.842-3.49h0.612l-1.871,2.278l2.183,3.479h-0.588l-1.906-3.082
			l-1.296,1.511v1.571h-0.527V0z"/>
		<path fill="#E5E5E5" d="M179.271,7.58c0.492,0.407,1.008,0.731,1.835,0.731c0.899,0,1.367-0.528,1.367-1.14
			c0-0.72-0.743-1.031-1.402-1.271c-0.876-0.312-1.836-0.659-1.836-1.643c0-0.84,0.66-1.535,1.859-1.535
			c0.611,0,1.224,0.252,1.644,0.6l-0.288,0.371c-0.384-0.287-0.792-0.516-1.379-0.516c-0.888,0-1.296,0.516-1.296,1.044
			c0,0.659,0.672,0.911,1.355,1.163c0.899,0.336,1.883,0.636,1.883,1.763c0,0.864-0.695,1.619-1.942,1.619
			c-0.852,0-1.596-0.359-2.111-0.791L179.271,7.58z"/>
		<path fill="#E5E5E5" d="M188.728,0h0.527v7.928c0,0.252,0.108,0.371,0.252,0.371c0.048,0,0.096,0,0.216-0.023l0.096,0.432
			c-0.107,0.036-0.216,0.06-0.384,0.06c-0.467,0-0.707-0.287-0.707-0.911V0z"/>
		<path fill="#E5E5E5" d="M192.268,1.007c0-0.3,0.216-0.479,0.479-0.479c0.265,0,0.48,0.18,0.48,0.479
			c0,0.276-0.216,0.468-0.48,0.468C192.483,1.475,192.268,1.283,192.268,1.007z M192.472,2.866h0.527v5.757h-0.527V2.866z"/>
		<path fill="#E5E5E5" d="M196.119,0h0.527v6.356h0.024l2.842-3.49h0.612l-1.871,2.278l2.183,3.479h-0.588l-1.906-3.082
			l-1.296,1.511v1.571h-0.527V0z"/>
		<path fill="#E5E5E5" d="M204.471,2.723c1.367,0,2.207,0.971,2.207,2.662c0,0.144,0,0.288-0.023,0.432h-4.15
			c0.024,1.451,0.876,2.495,2.171,2.495c0.624,0,1.115-0.204,1.547-0.516l0.217,0.407c-0.456,0.276-0.972,0.563-1.812,0.563
			c-1.476,0-2.662-1.127-2.662-3.01S203.188,2.723,204.471,2.723z M206.174,5.409c0-1.476-0.659-2.231-1.69-2.231
			c-0.983,0-1.859,0.852-1.979,2.231H206.174z"/>
		<path fill="#E5E5E5" d="M212.2,10.758c0.707,0,1.187-0.647,1.475-1.523l0.156-0.503l-2.363-5.865h0.576l1.391,3.622
			c0.181,0.479,0.408,1.104,0.624,1.607h0.048c0.18-0.504,0.372-1.128,0.528-1.607l1.235-3.622h0.539l-2.278,6.477
			c-0.324,0.959-0.899,1.907-1.931,1.907c-0.217,0-0.433-0.049-0.588-0.12l0.12-0.468C211.852,10.71,212.032,10.758,212.2,10.758z"
			/>
		<path fill="#E5E5E5" d="M220.658,2.723c1.392,0,2.591,1.103,2.591,3.034c0,1.906-1.199,3.01-2.591,3.01
			c-1.379,0-2.578-1.104-2.578-3.01C218.08,3.825,219.279,2.723,220.658,2.723z M220.658,8.299c1.163,0,2.039-1.031,2.039-2.542
			c0-1.523-0.876-2.566-2.039-2.566s-2.026,1.043-2.026,2.566C218.632,7.268,219.495,8.299,220.658,8.299z"/>
		<path fill="#E5E5E5" d="M225.795,2.866h0.527v3.622c0,1.224,0.384,1.799,1.308,1.799c0.684,0,1.188-0.359,1.859-1.175V2.866h0.527
			v5.757h-0.443l-0.061-0.96h-0.023c-0.564,0.66-1.164,1.104-1.955,1.104c-1.188,0-1.739-0.719-1.739-2.206V2.866z"/>
		<path fill="#E5E5E5" d="M239.808,5.013c0.024-0.875-0.228-1.822-1.354-1.822c-0.78,0-1.451,0.384-1.835,0.671l-0.24-0.396
			c0.408-0.288,1.199-0.743,2.135-0.743c1.367,0,1.823,0.983,1.823,2.219v3.682h-0.444l-0.06-0.743h-0.024
			c-0.587,0.468-1.283,0.887-2.038,0.887c-0.912,0-1.68-0.491-1.68-1.583C236.09,5.912,237.254,5.301,239.808,5.013z M237.854,8.312
			c0.659,0,1.247-0.324,1.954-0.936V5.421c-2.362,0.275-3.166,0.827-3.166,1.739C236.642,7.987,237.193,8.312,237.854,8.312z"/>
		<path fill="#E5E5E5" d="M243.303,2.866h0.456l0.048,1.067h0.036c0.384-0.708,0.947-1.211,1.631-1.211
			c0.216,0,0.384,0.023,0.575,0.119l-0.12,0.48c-0.191-0.072-0.3-0.097-0.527-0.097c-0.516,0-1.127,0.396-1.571,1.476v3.922h-0.527
			V2.866z"/>
		<path fill="#E5E5E5" d="M249.913,2.723c1.367,0,2.207,0.971,2.207,2.662c0,0.144,0,0.288-0.023,0.432h-4.15
			c0.024,1.451,0.876,2.495,2.171,2.495c0.624,0,1.115-0.204,1.547-0.516l0.217,0.407c-0.456,0.276-0.972,0.563-1.812,0.563
			c-1.476,0-2.662-1.127-2.662-3.01S248.63,2.723,249.913,2.723z M251.616,5.409c0-1.476-0.659-2.231-1.69-2.231
			c-0.983,0-1.859,0.852-1.979,2.231H251.616z"/>
		<path fill="#E5E5E5" d="M257.786,2.866h0.527v3.622c0,1.224,0.384,1.799,1.308,1.799c0.684,0,1.188-0.359,1.859-1.175V2.866h0.527
			v5.757h-0.444l-0.06-0.96h-0.023c-0.564,0.66-1.164,1.104-1.955,1.104c-1.188,0-1.739-0.719-1.739-2.206V2.866z"/>
		<path fill="#E5E5E5" d="M264.709,7.58c0.492,0.407,1.008,0.731,1.835,0.731c0.899,0,1.367-0.528,1.367-1.14
			c0-0.72-0.743-1.031-1.402-1.271c-0.876-0.312-1.836-0.659-1.836-1.643c0-0.84,0.66-1.535,1.859-1.535
			c0.611,0,1.224,0.252,1.644,0.6l-0.288,0.371c-0.384-0.287-0.792-0.516-1.379-0.516c-0.888,0-1.296,0.516-1.296,1.044
			c0,0.659,0.672,0.911,1.355,1.163c0.899,0.336,1.883,0.636,1.883,1.763c0,0.864-0.695,1.619-1.942,1.619
			c-0.852,0-1.596-0.359-2.111-0.791L264.709,7.58z"/>
		<path fill="#E5E5E5" d="M270.674,1.007c0-0.3,0.216-0.479,0.479-0.479c0.265,0,0.48,0.18,0.48,0.479
			c0,0.276-0.216,0.468-0.48,0.468C270.89,1.475,270.674,1.283,270.674,1.007z M270.878,2.866h0.527v5.757h-0.527V2.866z"/>
		<path fill="#E5E5E5" d="M274.526,2.866h0.456l0.048,0.888h0.036c0.587-0.588,1.187-1.031,1.979-1.031
			c1.188,0,1.739,0.72,1.739,2.206v3.694h-0.528V5.001c0-1.224-0.384-1.799-1.319-1.799c-0.684,0-1.175,0.359-1.883,1.079v4.342
			h-0.527V2.866z"/>
		<path fill="#E5E5E5" d="M282.182,8.407V8.359c-0.288-0.168-0.504-0.479-0.504-0.924c0-0.516,0.372-0.875,0.623-1.056V6.332
			c-0.359-0.312-0.719-0.888-0.719-1.583c0-1.188,0.899-2.026,2.026-2.026c0.312,0,0.576,0.071,0.756,0.144h1.955V3.31h-1.344
			c0.372,0.324,0.636,0.84,0.636,1.451c0,1.176-0.876,2.027-2.003,2.027c-0.324,0-0.695-0.084-0.959-0.24
			c-0.252,0.204-0.468,0.444-0.468,0.828c0,0.42,0.239,0.755,1.103,0.755h1.235c1.296,0,1.896,0.408,1.896,1.319
			c0,0.996-1.067,1.943-2.723,1.943c-1.451,0-2.362-0.624-2.362-1.595C281.33,9.295,281.653,8.791,282.182,8.407z M283.752,10.962
			c1.296,0,2.123-0.731,2.123-1.451c0-0.636-0.468-0.876-1.331-0.876h-1.235c-0.12,0-0.42-0.023-0.72-0.096
			c-0.527,0.359-0.756,0.804-0.756,1.211C281.833,10.47,282.529,10.962,283.752,10.962z M285.096,4.749
			c0-0.972-0.672-1.595-1.487-1.595s-1.499,0.611-1.499,1.595c0,0.972,0.695,1.619,1.499,1.619
			C284.4,6.368,285.096,5.721,285.096,4.749z"/>
		<path fill="#E5E5E5" d="M295.234,5.013c0.024-0.875-0.228-1.822-1.354-1.822c-0.78,0-1.451,0.384-1.835,0.671l-0.24-0.396
			c0.408-0.288,1.199-0.743,2.135-0.743c1.367,0,1.823,0.983,1.823,2.219v3.682h-0.444l-0.06-0.743h-0.024
			c-0.587,0.468-1.283,0.887-2.038,0.887c-0.912,0-1.68-0.491-1.68-1.583C291.517,5.912,292.681,5.301,295.234,5.013z M293.28,8.312
			c0.659,0,1.247-0.324,1.954-0.936V5.421c-2.362,0.275-3.166,0.827-3.166,1.739C292.068,7.987,292.62,8.312,293.28,8.312z"/>
		<path fill="#E5E5E5" d="M298.729,2.866h0.456l0.048,0.888h0.036c0.587-0.588,1.187-1.031,1.979-1.031
			c1.188,0,1.739,0.72,1.739,2.206v3.694h-0.528V5.001c0-1.224-0.384-1.799-1.319-1.799c-0.684,0-1.175,0.359-1.883,1.079v4.342
			h-0.527V2.866z"/>
		<path fill="#E5E5E5" d="M311.399,2.723c1.392,0,2.591,1.103,2.591,3.034c0,1.906-1.199,3.01-2.591,3.01
			c-1.379,0-2.578-1.104-2.578-3.01C308.821,3.825,310.021,2.723,311.399,2.723z M311.399,8.299c1.163,0,2.039-1.031,2.039-2.542
			c0-1.523-0.876-2.566-2.039-2.566s-2.026,1.043-2.026,2.566C309.373,7.268,310.236,8.299,311.399,8.299z"/>
		<path fill="#E5E5E5" d="M316.621,0h0.527v7.928c0,0.252,0.108,0.371,0.252,0.371c0.048,0,0.096,0,0.216-0.023l0.096,0.432
			c-0.107,0.036-0.216,0.06-0.384,0.06c-0.468,0-0.707-0.287-0.707-0.911V0z"/>
		<path fill="#E5E5E5" d="M322.439,2.723c0.695,0,1.163,0.264,1.738,0.707l-0.023-1.056V0h0.527v8.623h-0.456l-0.048-0.743h-0.036
			c-0.467,0.468-1.103,0.887-1.87,0.887c-1.451,0-2.387-1.067-2.387-3.01C319.885,3.897,321.071,2.723,322.439,2.723z
			 M322.343,8.299c0.636,0,1.199-0.335,1.812-0.947V3.934c-0.612-0.54-1.115-0.743-1.68-0.743c-1.151,0-2.026,1.115-2.026,2.566
			C320.448,7.28,321.12,8.299,322.343,8.299z"/>
		<path fill="#E5E5E5" d="M331.081,0h0.527v2.494l-0.023,1.128c0.587-0.492,1.283-0.899,1.99-0.899c1.535,0,2.303,1.151,2.303,2.938
			c0,1.954-1.187,3.105-2.542,3.105c-0.552,0-1.188-0.264-1.728-0.684h-0.023l-0.061,0.54h-0.443V0z M333.312,8.299
			c1.163,0,2.003-1.079,2.003-2.638c0-1.416-0.504-2.471-1.823-2.471c-0.575,0-1.199,0.335-1.883,0.947v3.418
			C332.244,8.096,332.868,8.299,333.312,8.299z"/>
		<path fill="#E5E5E5" d="M338.509,2.866h0.456l0.048,1.067h0.036c0.384-0.708,0.947-1.211,1.631-1.211
			c0.216,0,0.384,0.023,0.575,0.119l-0.12,0.48c-0.191-0.072-0.3-0.097-0.527-0.097c-0.516,0-1.127,0.396-1.571,1.476v3.922h-0.527
			V2.866z"/>
		<path fill="#E5E5E5" d="M345.191,2.723c1.392,0,2.591,1.103,2.591,3.034c0,1.906-1.199,3.01-2.591,3.01
			c-1.379,0-2.578-1.104-2.578-3.01C342.613,3.825,343.812,2.723,345.191,2.723z M345.191,8.299c1.163,0,2.039-1.031,2.039-2.542
			c0-1.523-0.876-2.566-2.039-2.566s-2.026,1.043-2.026,2.566C343.165,7.268,344.028,8.299,345.191,8.299z"/>
		<path fill="#E5E5E5" d="M349.597,2.866h0.575l1.031,3.729c0.145,0.528,0.276,1.02,0.396,1.535h0.048
			c0.132-0.516,0.275-1.007,0.42-1.535l1.043-3.729h0.636l1.044,3.729c0.144,0.528,0.287,1.02,0.432,1.535h0.048
			c0.132-0.516,0.275-1.007,0.407-1.535l1.02-3.729h0.54l-1.655,5.757h-0.695l-1.008-3.574c-0.168-0.552-0.275-1.079-0.443-1.643
			h-0.048c-0.132,0.563-0.276,1.115-0.456,1.667l-0.995,3.55H351.3L349.597,2.866z"/>
		<path fill="#E5E5E5" d="M359.124,7.58c0.492,0.407,1.008,0.731,1.835,0.731c0.899,0,1.367-0.528,1.367-1.14
			c0-0.72-0.743-1.031-1.403-1.271c-0.875-0.312-1.835-0.659-1.835-1.643c0-0.84,0.66-1.535,1.859-1.535
			c0.611,0,1.224,0.252,1.644,0.6l-0.288,0.371c-0.384-0.287-0.792-0.516-1.38-0.516c-0.887,0-1.295,0.516-1.295,1.044
			c0,0.659,0.672,0.911,1.355,1.163c0.899,0.336,1.883,0.636,1.883,1.763c0,0.864-0.695,1.619-1.943,1.619
			c-0.851,0-1.595-0.359-2.11-0.791L359.124,7.58z"/>
		<path fill="#E5E5E5" d="M367.319,2.723c1.367,0,2.207,0.971,2.207,2.662c0,0.144,0,0.288-0.023,0.432h-4.15
			c0.024,1.451,0.876,2.495,2.171,2.495c0.624,0,1.115-0.204,1.547-0.516l0.217,0.407c-0.456,0.276-0.972,0.563-1.812,0.563
			c-1.476,0-2.662-1.127-2.662-3.01S366.036,2.723,367.319,2.723z M369.022,5.409c0-1.476-0.659-2.231-1.69-2.231
			c-0.983,0-1.859,0.852-1.979,2.231H369.022z"/>
		<path fill="#E5E5E5" d="M371.988,2.866h0.456l0.048,1.067h0.036c0.384-0.708,0.947-1.211,1.631-1.211
			c0.216,0,0.384,0.023,0.575,0.119l-0.12,0.48c-0.191-0.072-0.3-0.097-0.527-0.097c-0.516,0-1.127,0.396-1.571,1.476v3.922h-0.527
			V2.866z"/>
		<path fill="#E5E5E5" d="M375.696,10.122c0.54-0.288,0.912-0.791,0.924-1.451c-0.048,0.012-0.096,0.012-0.144,0.012
			c-0.276,0-0.504-0.18-0.504-0.503c0-0.324,0.252-0.504,0.516-0.504c0.36,0,0.611,0.323,0.611,0.852
			c0,0.875-0.516,1.571-1.235,1.955L375.696,10.122z"/>
		<path fill="#E5E5E5" d="M0,18.72h0.575l0.996,4.653c0.18,0.863,0.359,1.727,0.539,2.578h0.049
			c0.191-0.852,0.396-1.715,0.611-2.578l1.235-4.653h0.563l1.235,4.653c0.216,0.863,0.42,1.715,0.636,2.578h0.048
			c0.18-0.863,0.336-1.715,0.516-2.578l0.995-4.653h0.54l-1.763,7.903H6.165l-1.439-5.421c-0.145-0.624-0.288-1.163-0.42-1.787
			H4.257c-0.131,0.624-0.299,1.163-0.443,1.787l-1.415,5.421h-0.6L0,18.72z"/>
		<path fill="#E5E5E5" d="M12.935,20.723c1.367,0,2.206,0.971,2.206,2.662c0,0.144,0,0.288-0.024,0.432h-4.148
			c0.023,1.451,0.875,2.495,2.17,2.495c0.624,0,1.115-0.204,1.547-0.516l0.217,0.407c-0.456,0.276-0.972,0.563-1.812,0.563
			c-1.476,0-2.663-1.127-2.663-3.01S11.651,20.723,12.935,20.723z M14.638,23.409c0-1.476-0.66-2.231-1.691-2.231
			c-0.984,0-1.859,0.852-1.979,2.231H14.638z"/>
		<path fill="#E5E5E5" d="M20.892,20.866h0.455l0.048,1.067h0.036c0.384-0.708,0.947-1.211,1.631-1.211
			c0.217,0,0.385,0.023,0.576,0.119l-0.12,0.48c-0.192-0.072-0.3-0.097-0.528-0.097c-0.516,0-1.127,0.396-1.57,1.476v3.922h-0.527
			V20.866z"/>
		<path fill="#E5E5E5" d="M27.501,20.723c1.367,0,2.207,0.971,2.207,2.662c0,0.144,0,0.288-0.023,0.432h-4.15
			c0.024,1.451,0.876,2.495,2.171,2.495c0.624,0,1.116-0.204,1.548-0.516l0.215,0.407c-0.455,0.276-0.971,0.563-1.811,0.563
			c-1.475,0-2.662-1.127-2.662-3.01S26.218,20.723,27.501,20.723z M29.204,23.409c0-1.476-0.659-2.231-1.691-2.231
			c-0.982,0-1.858,0.852-1.979,2.231H29.204z"/>
		<path fill="#E5E5E5" d="M34.317,20.723c0.791,0,1.307,0.348,1.691,0.707l-0.312,0.372c-0.371-0.348-0.804-0.611-1.367-0.611
			c-1.176,0-2.087,1.043-2.087,2.566c0,1.511,0.827,2.542,2.087,2.542c0.611,0,1.139-0.3,1.535-0.659l0.275,0.359
			c-0.491,0.444-1.104,0.768-1.834,0.768c-1.488,0-2.615-1.104-2.615-3.01C31.69,21.825,32.914,20.723,34.317,20.723z"/>
		<path fill="#E5E5E5" d="M40.353,20.723c1.392,0,2.592,1.103,2.592,3.034c0,1.906-1.2,3.01-2.592,3.01
			c-1.379,0-2.578-1.104-2.578-3.01C37.774,21.825,38.974,20.723,40.353,20.723z M40.353,26.299c1.164,0,2.039-1.031,2.039-2.542
			c0-1.523-0.875-2.566-2.039-2.566c-1.162,0-2.026,1.043-2.026,2.566C38.326,25.268,39.19,26.299,40.353,26.299z"/>
		<path fill="#E5E5E5" d="M45.574,20.866h0.456l0.047,0.888h0.037c0.516-0.588,1.175-1.031,1.811-1.031
			c0.924,0,1.391,0.468,1.596,1.175c0.659-0.72,1.295-1.175,1.954-1.175c1.151,0,1.728,0.72,1.728,2.206v3.694h-0.54v-3.622
			c0-1.224-0.407-1.799-1.283-1.799c-0.54,0-1.091,0.359-1.728,1.079v4.342h-0.527v-3.622c0-1.224-0.408-1.799-1.295-1.799
			c-0.516,0-1.092,0.359-1.728,1.079v4.342h-0.527V20.866z"/>
		<path fill="#E5E5E5" d="M56.219,20.866h0.456l0.047,0.888h0.037c0.516-0.588,1.175-1.031,1.811-1.031
			c0.924,0,1.392,0.468,1.595,1.175c0.66-0.72,1.296-1.175,1.955-1.175c1.151,0,1.728,0.72,1.728,2.206v3.694h-0.54v-3.622
			c0-1.224-0.407-1.799-1.283-1.799c-0.54,0-1.092,0.359-1.728,1.079v4.342h-0.527v-3.622c0-1.224-0.407-1.799-1.295-1.799
			c-0.516,0-1.092,0.359-1.728,1.079v4.342h-0.527V20.866z"/>
		<path fill="#E5E5E5" d="M68.889,20.723c1.367,0,2.207,0.971,2.207,2.662c0,0.144,0,0.288-0.023,0.432h-4.15
			c0.024,1.451,0.876,2.495,2.171,2.495c0.624,0,1.115-0.204,1.547-0.516l0.217,0.407c-0.456,0.276-0.972,0.563-1.812,0.563
			c-1.476,0-2.662-1.127-2.662-3.01S67.605,20.723,68.889,20.723z M70.592,23.409c0-1.476-0.659-2.231-1.69-2.231
			c-0.983,0-1.859,0.852-1.979,2.231H70.592z"/>
		<path fill="#E5E5E5" d="M73.558,20.866h0.456l0.048,0.888h0.036c0.587-0.588,1.187-1.031,1.979-1.031
			c1.188,0,1.739,0.72,1.739,2.206v3.694h-0.528v-3.622c0-1.224-0.384-1.799-1.319-1.799c-0.684,0-1.175,0.359-1.883,1.079v4.342
			h-0.527V20.866z"/>
		<path fill="#E5E5E5" d="M82.917,20.723c0.695,0,1.163,0.264,1.738,0.707l-0.023-1.056V18h0.527v8.623h-0.456l-0.048-0.743h-0.036
			c-0.468,0.468-1.103,0.887-1.87,0.887c-1.451,0-2.387-1.067-2.387-3.01C80.362,21.897,81.549,20.723,82.917,20.723z M82.82,26.299
			c0.636,0,1.199-0.335,1.812-0.947v-3.418c-0.612-0.54-1.115-0.743-1.68-0.743c-1.151,0-2.026,1.115-2.026,2.566
			C80.926,25.28,81.598,26.299,82.82,26.299z"/>
		<path fill="#E5E5E5" d="M91.689,21.322H90.79v-0.408l0.911-0.048l0.072-1.667h0.456v1.667h1.667v0.456h-1.667v3.754
			c0,0.731,0.18,1.223,0.971,1.223c0.216,0,0.516-0.084,0.72-0.18l0.145,0.432c-0.336,0.12-0.696,0.216-0.936,0.216
			c-1.115,0-1.439-0.707-1.439-1.738V21.322z"/>
		<path fill="#E5E5E5" d="M98.18,20.723c1.392,0,2.591,1.103,2.591,3.034c0,1.906-1.199,3.01-2.591,3.01
			c-1.379,0-2.578-1.104-2.578-3.01C95.602,21.825,96.801,20.723,98.18,20.723z M98.18,26.299c1.163,0,2.039-1.031,2.039-2.542
			c0-1.523-0.876-2.566-2.039-2.566s-2.026,1.043-2.026,2.566C96.153,25.268,97.017,26.299,98.18,26.299z"/>
		<path fill="#E5E5E5" d="M106.606,20.866h0.527v3.622c0,1.224,0.384,1.799,1.308,1.799c0.684,0,1.188-0.359,1.859-1.175v-4.246
			h0.527v5.757h-0.444l-0.06-0.96h-0.023c-0.564,0.66-1.164,1.104-1.955,1.104c-1.188,0-1.739-0.719-1.739-2.206V20.866z"/>
		<path fill="#E5E5E5" d="M113.529,25.58c0.492,0.407,1.008,0.731,1.835,0.731c0.899,0,1.367-0.528,1.367-1.14
			c0-0.72-0.743-1.031-1.402-1.271c-0.876-0.312-1.836-0.659-1.836-1.643c0-0.84,0.66-1.535,1.859-1.535
			c0.611,0,1.224,0.252,1.644,0.6l-0.288,0.371c-0.384-0.287-0.792-0.516-1.379-0.516c-0.888,0-1.296,0.516-1.296,1.044
			c0,0.659,0.672,0.911,1.355,1.163c0.899,0.336,1.883,0.636,1.883,1.763c0,0.864-0.695,1.619-1.942,1.619
			c-0.852,0-1.596-0.359-2.111-0.791L113.529,25.58z"/>
		<path fill="#E5E5E5" d="M121.724,20.723c1.367,0,2.207,0.971,2.207,2.662c0,0.144,0,0.288-0.023,0.432h-4.15
			c0.024,1.451,0.876,2.495,2.171,2.495c0.624,0,1.115-0.204,1.547-0.516l0.217,0.407c-0.456,0.276-0.972,0.563-1.812,0.563
			c-1.476,0-2.662-1.127-2.662-3.01S120.44,20.723,121.724,20.723z M123.427,23.409c0-1.476-0.659-2.231-1.69-2.231
			c-0.983,0-1.859,0.852-1.979,2.231H123.427z"/>
		<path fill="#E5E5E5" d="M129.812,21.322h-0.899v-0.408l0.911-0.048l0.072-1.667h0.456v1.667h1.667v0.456h-1.667v3.754
			c0,0.731,0.18,1.223,0.971,1.223c0.216,0,0.516-0.084,0.72-0.18l0.145,0.432c-0.336,0.12-0.696,0.216-0.936,0.216
			c-1.115,0-1.439-0.707-1.439-1.738V21.322z"/>
		<path fill="#E5E5E5" d="M134.325,18h0.527v2.494v1.271c0.6-0.6,1.199-1.043,1.991-1.043c1.188,0,1.739,0.72,1.739,2.206v3.694
			h-0.528v-3.622c0-1.224-0.384-1.799-1.319-1.799c-0.684,0-1.175,0.359-1.883,1.079v4.342h-0.527V18z"/>
		<path fill="#E5E5E5" d="M143.587,20.723c1.367,0,2.207,0.971,2.207,2.662c0,0.144,0,0.288-0.023,0.432h-4.15
			c0.024,1.451,0.876,2.495,2.171,2.495c0.624,0,1.115-0.204,1.547-0.516l0.217,0.407c-0.456,0.276-0.972,0.563-1.812,0.563
			c-1.476,0-2.662-1.127-2.662-3.01S142.304,20.723,143.587,20.723z M145.29,23.409c0-1.476-0.659-2.231-1.69-2.231
			c-0.983,0-1.859,0.852-1.979,2.231H145.29z"/>
		<path fill="#E5E5E5" d="M151.544,20.866H152l0.048,0.888h0.036c0.587-0.588,1.187-1.031,1.979-1.031
			c1.188,0,1.739,0.72,1.739,2.206v3.694h-0.528v-3.622c0-1.224-0.384-1.799-1.319-1.799c-0.684,0-1.175,0.359-1.883,1.079v4.342
			h-0.527V20.866z"/>
		<path fill="#E5E5E5" d="M160.855,20.723c1.367,0,2.207,0.971,2.207,2.662c0,0.144,0,0.288-0.023,0.432h-4.15
			c0.024,1.451,0.876,2.495,2.171,2.495c0.624,0,1.115-0.204,1.547-0.516l0.217,0.407c-0.456,0.276-0.972,0.563-1.812,0.563
			c-1.476,0-2.662-1.127-2.662-3.01S159.572,20.723,160.855,20.723z M162.559,23.409c0-1.476-0.659-2.231-1.69-2.231
			c-0.983,0-1.859,0.852-1.979,2.231H162.559z"/>
		<path fill="#E5E5E5" d="M164.854,20.866h0.575l1.031,3.729c0.145,0.528,0.276,1.02,0.396,1.535h0.048
			c0.132-0.516,0.275-1.007,0.42-1.535l1.043-3.729h0.636l1.044,3.729c0.144,0.528,0.287,1.02,0.432,1.535h0.048
			c0.132-0.516,0.275-1.007,0.407-1.535l1.02-3.729h0.54l-1.655,5.757h-0.695l-1.008-3.574c-0.168-0.552-0.275-1.079-0.443-1.643
			h-0.048c-0.132,0.563-0.276,1.115-0.456,1.667l-0.995,3.55h-0.636L164.854,20.866z"/>
		<path fill="#E5E5E5" d="M176.814,20.723c1.367,0,2.207,0.971,2.207,2.662c0,0.144,0,0.288-0.023,0.432h-4.15
			c0.024,1.451,0.876,2.495,2.171,2.495c0.624,0,1.115-0.204,1.547-0.516l0.217,0.407c-0.456,0.276-0.972,0.563-1.812,0.563
			c-1.476,0-2.662-1.127-2.662-3.01S175.531,20.723,176.814,20.723z M178.518,23.409c0-1.476-0.659-2.231-1.69-2.231
			c-0.983,0-1.859,0.852-1.979,2.231H178.518z"/>
		<path fill="#E5E5E5" d="M181.076,25.58c0.492,0.407,1.008,0.731,1.835,0.731c0.899,0,1.367-0.528,1.367-1.14
			c0-0.72-0.743-1.031-1.402-1.271c-0.876-0.312-1.836-0.659-1.836-1.643c0-0.84,0.66-1.535,1.859-1.535
			c0.611,0,1.224,0.252,1.644,0.6l-0.288,0.371c-0.384-0.287-0.792-0.516-1.379-0.516c-0.888,0-1.296,0.516-1.296,1.044
			c0,0.659,0.672,0.911,1.355,1.163c0.899,0.336,1.883,0.636,1.883,1.763c0,0.864-0.695,1.619-1.942,1.619
			c-0.852,0-1.596-0.359-2.111-0.791L181.076,25.58z"/>
		<path fill="#E5E5E5" d="M187.376,21.322h-0.899v-0.408l0.911-0.048l0.072-1.667h0.456v1.667h1.667v0.456h-1.667v3.754
			c0,0.731,0.18,1.223,0.971,1.223c0.216,0,0.517-0.084,0.72-0.18l0.145,0.432c-0.336,0.12-0.696,0.216-0.936,0.216
			c-1.115,0-1.439-0.707-1.439-1.738V21.322z"/>
		<path fill="#E5E5E5" d="M194.217,20.866h0.576l1.295,3.61c0.18,0.552,0.396,1.127,0.576,1.654h0.048
			c0.191-0.527,0.396-1.103,0.588-1.654l1.295-3.61h0.54L197,26.623h-0.624L194.217,20.866z"/>
		<path fill="#E5E5E5" d="M203.311,20.723c1.367,0,2.207,0.971,2.207,2.662c0,0.144,0,0.288-0.023,0.432h-4.15
			c0.024,1.451,0.876,2.495,2.171,2.495c0.624,0,1.115-0.204,1.547-0.516l0.217,0.407c-0.456,0.276-0.972,0.563-1.812,0.563
			c-1.476,0-2.662-1.127-2.662-3.01S202.027,20.723,203.311,20.723z M205.014,23.409c0-1.476-0.659-2.231-1.69-2.231
			c-0.983,0-1.859,0.852-1.979,2.231H205.014z"/>
		<path fill="#E5E5E5" d="M207.98,20.866h0.456l0.048,1.067h0.036c0.384-0.708,0.947-1.211,1.631-1.211
			c0.216,0,0.384,0.023,0.575,0.119l-0.12,0.48c-0.191-0.072-0.3-0.097-0.527-0.097c-0.516,0-1.127,0.396-1.571,1.476v3.922h-0.527
			V20.866z"/>
		<path fill="#E5E5E5" d="M212.155,25.58c0.492,0.407,1.008,0.731,1.835,0.731c0.899,0,1.367-0.528,1.367-1.14
			c0-0.72-0.743-1.031-1.403-1.271c-0.875-0.312-1.835-0.659-1.835-1.643c0-0.84,0.66-1.535,1.859-1.535
			c0.611,0,1.224,0.252,1.644,0.6l-0.288,0.371c-0.384-0.287-0.792-0.516-1.38-0.516c-0.887,0-1.295,0.516-1.295,1.044
			c0,0.659,0.672,0.911,1.355,1.163c0.899,0.336,1.883,0.636,1.883,1.763c0,0.864-0.695,1.619-1.943,1.619
			c-0.851,0-1.595-0.359-2.11-0.791L212.155,25.58z"/>
		<path fill="#E5E5E5" d="M218.12,19.007c0-0.3,0.216-0.479,0.479-0.479c0.265,0,0.48,0.18,0.48,0.479
			c0,0.276-0.216,0.468-0.48,0.468C218.336,19.475,218.12,19.283,218.12,19.007z M218.324,20.866h0.527v5.757h-0.527V20.866z"/>
		<path fill="#E5E5E5" d="M224.071,20.723c1.392,0,2.591,1.103,2.591,3.034c0,1.906-1.199,3.01-2.591,3.01
			c-1.379,0-2.578-1.104-2.578-3.01C221.493,21.825,222.692,20.723,224.071,20.723z M224.071,26.299
			c1.163,0,2.039-1.031,2.039-2.542c0-1.523-0.876-2.566-2.039-2.566s-2.026,1.043-2.026,2.566
			C222.045,25.268,222.908,26.299,224.071,26.299z"/>
		<path fill="#E5E5E5" d="M229.292,20.866h0.456l0.048,0.888h0.036c0.587-0.588,1.187-1.031,1.979-1.031
			c1.188,0,1.739,0.72,1.739,2.206v3.694h-0.528v-3.622c0-1.224-0.384-1.799-1.319-1.799c-0.684,0-1.175,0.359-1.883,1.079v4.342
			h-0.527V20.866z"/>
		<path fill="#E5E5E5" d="M241.962,20.723c1.392,0,2.591,1.103,2.591,3.034c0,1.906-1.199,3.01-2.591,3.01
			c-1.379,0-2.578-1.104-2.578-3.01C239.384,21.825,240.583,20.723,241.962,20.723z M241.962,26.299
			c1.163,0,2.039-1.031,2.039-2.542c0-1.523-0.876-2.566-2.039-2.566s-2.026,1.043-2.026,2.566
			C239.936,25.268,240.799,26.299,241.962,26.299z"/>
		<path fill="#E5E5E5" d="M249.391,18.479c-0.24-0.12-0.48-0.168-0.696-0.168c-0.611,0-0.899,0.479-0.899,1.308v1.247h1.331v0.456
			h-1.331v5.301h-0.527v-5.301h-0.792v-0.408l0.792-0.048v-1.283c0-1.14,0.516-1.728,1.427-1.728c0.264,0,0.576,0.072,0.84,0.192
			L249.391,18.479z"/>
		<path fill="#E5E5E5" d="M257.466,18.575c0.911,0,1.631,0.456,2.051,0.947l-0.336,0.36c-0.42-0.479-0.995-0.804-1.715-0.804
			c-1.739,0-2.807,1.379-2.807,3.574c0,2.194,1.056,3.61,2.759,3.61c0.815,0,1.415-0.324,1.99-0.972l0.336,0.348
			c-0.611,0.695-1.331,1.127-2.351,1.127c-1.955,0-3.311-1.595-3.311-4.113C254.083,20.146,255.451,18.575,257.466,18.575z"/>
		<path fill="#E5E5E5" d="M262.195,18h0.527v2.494v1.271c0.6-0.6,1.199-1.043,1.991-1.043c1.188,0,1.739,0.72,1.739,2.206v3.694
			h-0.528v-3.622c0-1.224-0.384-1.799-1.319-1.799c-0.684,0-1.175,0.359-1.883,1.079v4.342h-0.527V18z"/>
		<path fill="#E5E5E5" d="M269.431,20.866h0.456l0.048,1.067h0.036c0.384-0.708,0.947-1.211,1.631-1.211
			c0.216,0,0.384,0.023,0.575,0.119l-0.12,0.48c-0.191-0.072-0.3-0.097-0.527-0.097c-0.516,0-1.127,0.396-1.571,1.476v3.922h-0.527
			V20.866z"/>
		<path fill="#E5E5E5" d="M276.113,20.723c1.392,0,2.591,1.103,2.591,3.034c0,1.906-1.199,3.01-2.591,3.01
			c-1.379,0-2.578-1.104-2.578-3.01C273.535,21.825,274.734,20.723,276.113,20.723z M276.113,26.299
			c1.163,0,2.039-1.031,2.039-2.542c0-1.523-0.876-2.566-2.039-2.566s-2.026,1.043-2.026,2.566
			C274.087,25.268,274.95,26.299,276.113,26.299z"/>
		<path fill="#E5E5E5" d="M281.335,20.866h0.456l0.048,0.888h0.036c0.516-0.588,1.175-1.031,1.811-1.031
			c0.924,0,1.392,0.468,1.595,1.175c0.66-0.72,1.296-1.175,1.955-1.175c1.151,0,1.728,0.72,1.728,2.206v3.694h-0.54v-3.622
			c0-1.224-0.407-1.799-1.283-1.799c-0.54,0-1.092,0.359-1.727,1.079v4.342h-0.528v-3.622c0-1.224-0.407-1.799-1.295-1.799
			c-0.516,0-1.092,0.359-1.728,1.079v4.342h-0.527V20.866z"/>
		<path fill="#E5E5E5" d="M294.005,20.723c1.367,0,2.207,0.971,2.207,2.662c0,0.144,0,0.288-0.023,0.432h-4.15
			c0.024,1.451,0.876,2.495,2.171,2.495c0.624,0,1.115-0.204,1.547-0.516l0.217,0.407c-0.456,0.276-0.972,0.563-1.812,0.563
			c-1.476,0-2.662-1.127-2.662-3.01S292.722,20.723,294.005,20.723z M295.708,23.409c0-1.476-0.659-2.231-1.69-2.231
			c-0.983,0-1.859,0.852-1.979,2.231H295.708z"/>
		<path fill="#E5E5E5" d="M302.094,21.322h-0.899v-0.408l0.911-0.048l0.072-1.667h0.456v1.667h1.667v0.456h-1.667v3.754
			c0,0.731,0.18,1.223,0.971,1.223c0.216,0,0.516-0.084,0.72-0.18l0.145,0.432c-0.336,0.12-0.696,0.216-0.936,0.216
			c-1.115,0-1.439-0.707-1.439-1.738V21.322z"/>
		<path fill="#E5E5E5" d="M308.585,20.723c1.392,0,2.591,1.103,2.591,3.034c0,1.906-1.199,3.01-2.591,3.01
			c-1.379,0-2.578-1.104-2.578-3.01C306.007,21.825,307.206,20.723,308.585,20.723z M308.585,26.299
			c1.163,0,2.039-1.031,2.039-2.542c0-1.523-0.876-2.566-2.039-2.566s-2.026,1.043-2.026,2.566
			C306.559,25.268,307.422,26.299,308.585,26.299z"/>
		<path fill="#E5E5E5" d="M316.686,25.58c0.492,0.407,1.008,0.731,1.835,0.731c0.899,0,1.367-0.528,1.367-1.14
			c0-0.72-0.743-1.031-1.402-1.271c-0.876-0.312-1.836-0.659-1.836-1.643c0-0.84,0.66-1.535,1.859-1.535
			c0.611,0,1.224,0.252,1.644,0.6l-0.288,0.371c-0.384-0.287-0.792-0.516-1.379-0.516c-0.888,0-1.296,0.516-1.296,1.044
			c0,0.659,0.672,0.911,1.355,1.163c0.899,0.336,1.883,0.636,1.883,1.763c0,0.864-0.695,1.619-1.942,1.619
			c-0.852,0-1.596-0.359-2.111-0.791L316.686,25.58z"/>
		<path fill="#E5E5E5" d="M324.881,20.723c1.367,0,2.207,0.971,2.207,2.662c0,0.144,0,0.288-0.023,0.432h-4.15
			c0.024,1.451,0.876,2.495,2.171,2.495c0.624,0,1.115-0.204,1.547-0.516l0.217,0.407c-0.456,0.276-0.972,0.563-1.812,0.563
			c-1.476,0-2.662-1.127-2.662-3.01S323.598,20.723,324.881,20.723z M326.584,23.409c0-1.476-0.659-2.231-1.69-2.231
			c-0.983,0-1.859,0.852-1.979,2.231H326.584z"/>
		<path fill="#E5E5E5" d="M331.576,20.723c1.367,0,2.207,0.971,2.207,2.662c0,0.144,0,0.288-0.023,0.432h-4.15
			c0.024,1.451,0.876,2.495,2.171,2.495c0.624,0,1.115-0.204,1.547-0.516l0.217,0.407c-0.456,0.276-0.972,0.563-1.812,0.563
			c-1.476,0-2.662-1.127-2.662-3.01S330.293,20.723,331.576,20.723z M333.279,23.409c0-1.476-0.659-2.231-1.69-2.231
			c-0.983,0-1.859,0.852-1.979,2.231H333.279z"/>
		<path fill="#E5E5E5" d="M339.666,21.322h-0.899v-0.408l0.911-0.048l0.072-1.667h0.456v1.667h1.667v0.456h-1.667v3.754
			c0,0.731,0.18,1.223,0.971,1.223c0.216,0,0.516-0.084,0.72-0.18l0.145,0.432c-0.336,0.12-0.696,0.216-0.936,0.216
			c-1.115,0-1.439-0.707-1.439-1.738V21.322z"/>
		<path fill="#E5E5E5" d="M344.178,18h0.527v2.494v1.271c0.6-0.6,1.199-1.043,1.991-1.043c1.188,0,1.739,0.72,1.739,2.206v3.694
			h-0.528v-3.622c0-1.224-0.384-1.799-1.319-1.799c-0.684,0-1.175,0.359-1.883,1.079v4.342h-0.527V18z"/>
		<path fill="#E5E5E5" d="M353.44,20.723c1.367,0,2.207,0.971,2.207,2.662c0,0.144,0,0.288-0.023,0.432h-4.15
			c0.024,1.451,0.876,2.495,2.171,2.495c0.624,0,1.115-0.204,1.547-0.516l0.217,0.407c-0.456,0.276-0.972,0.563-1.812,0.563
			c-1.476,0-2.662-1.127-2.662-3.01S352.157,20.723,353.44,20.723z M355.144,23.409c0-1.476-0.659-2.231-1.69-2.231
			c-0.983,0-1.859,0.852-1.979,2.231H355.144z"/>
		<path fill="#E5E5E5" d="M363.604,18.479c-0.24-0.12-0.48-0.168-0.696-0.168c-0.611,0-0.899,0.479-0.899,1.308v1.247h1.331v0.456
			h-1.331v5.301h-0.527v-5.301h-0.792v-0.408l0.792-0.048v-1.283c0-1.14,0.516-1.728,1.427-1.728c0.265,0,0.576,0.072,0.84,0.192
			L363.604,18.479z"/>
		<path fill="#E5E5E5" d="M365.106,20.866h0.527v3.622c0,1.224,0.384,1.799,1.308,1.799c0.684,0,1.188-0.359,1.859-1.175v-4.246
			h0.527v5.757h-0.444l-0.06-0.96h-0.023c-0.564,0.66-1.164,1.104-1.955,1.104c-1.188,0-1.739-0.719-1.739-2.206V20.866z"/>
		<path fill="#E5E5E5" d="M372.438,18h0.527v7.928c0,0.252,0.108,0.371,0.252,0.371c0.048,0,0.096,0,0.216-0.023l0.096,0.432
			c-0.107,0.036-0.216,0.06-0.384,0.06c-0.468,0-0.707-0.287-0.707-0.911V18z"/>
		<path fill="#E5E5E5" d="M376.182,18h0.527v7.928c0,0.252,0.108,0.371,0.252,0.371c0.048,0,0.096,0,0.216-0.023l0.096,0.432
			c-0.107,0.036-0.216,0.06-0.384,0.06c-0.468,0-0.707-0.287-0.707-0.911V18z"/>
		<path fill="#E5E5E5" d="M379.697,28.758c0.707,0,1.187-0.647,1.475-1.523l0.156-0.503l-2.363-5.865h0.576l1.392,3.622
			c0.18,0.479,0.407,1.104,0.623,1.607h0.048c0.18-0.504,0.372-1.128,0.528-1.607l1.235-3.622h0.539l-2.278,6.477
			c-0.324,0.959-0.899,1.907-1.931,1.907c-0.217,0-0.433-0.049-0.588-0.12l0.12-0.468C379.349,28.71,379.529,28.758,379.697,28.758z
			"/>
		<path fill="#E5E5E5" d="M391.552,18.479c-0.24-0.12-0.48-0.168-0.696-0.168c-0.611,0-0.899,0.479-0.899,1.308v1.247h1.331v0.456
			h-1.331v5.301h-0.527v-5.301h-0.792v-0.408l0.792-0.048v-1.283c0-1.14,0.516-1.728,1.427-1.728c0.265,0,0.576,0.072,0.84,0.192
			L391.552,18.479z"/>
		<path fill="#E5E5E5" d="M393.053,20.866h0.527v3.622c0,1.224,0.384,1.799,1.308,1.799c0.684,0,1.188-0.359,1.859-1.175v-4.246
			h0.527v5.757h-0.443l-0.061-0.96h-0.023c-0.564,0.66-1.164,1.104-1.955,1.104c-1.188,0-1.739-0.719-1.739-2.206V20.866z"/>
		<path fill="#E5E5E5" d="M400.385,20.866h0.456l0.048,0.888h0.036c0.587-0.588,1.187-1.031,1.979-1.031
			c1.188,0,1.739,0.72,1.739,2.206v3.694h-0.528v-3.622c0-1.224-0.384-1.799-1.319-1.799c-0.684,0-1.175,0.359-1.883,1.079v4.342
			h-0.527V20.866z"/>
		<path fill="#E5E5E5" d="M409.814,20.723c0.792,0,1.308,0.348,1.691,0.707l-0.312,0.372c-0.372-0.348-0.804-0.611-1.367-0.611
			c-1.176,0-2.087,1.043-2.087,2.566c0,1.511,0.827,2.542,2.087,2.542c0.611,0,1.139-0.3,1.535-0.659l0.275,0.359
			c-0.492,0.444-1.104,0.768-1.835,0.768c-1.487,0-2.614-1.104-2.614-3.01C407.188,21.825,408.411,20.723,409.814,20.723z"/>
		<path fill="#E5E5E5" d="M414.088,21.322h-0.899v-0.408l0.911-0.048l0.072-1.667h0.456v1.667h1.667v0.456h-1.667v3.754
			c0,0.731,0.18,1.223,0.971,1.223c0.216,0,0.516-0.084,0.72-0.18l0.145,0.432c-0.336,0.12-0.696,0.216-0.936,0.216
			c-1.115,0-1.439-0.707-1.439-1.738V21.322z"/>
		<path fill="#E5E5E5" d="M418.396,19.007c0-0.3,0.216-0.479,0.479-0.479c0.265,0,0.48,0.18,0.48,0.479
			c0,0.276-0.216,0.468-0.48,0.468C418.612,19.475,418.396,19.283,418.396,19.007z M418.601,20.866h0.527v5.757h-0.527V20.866z"/>
		<path fill="#E5E5E5" d="M424.347,20.723c1.392,0,2.591,1.103,2.591,3.034c0,1.906-1.199,3.01-2.591,3.01
			c-1.379,0-2.578-1.104-2.578-3.01C421.769,21.825,422.968,20.723,424.347,20.723z M424.347,26.299
			c1.163,0,2.039-1.031,2.039-2.542c0-1.523-0.876-2.566-2.039-2.566s-2.026,1.043-2.026,2.566
			C422.32,25.268,423.184,26.299,424.347,26.299z"/>
		<path fill="#E5E5E5" d="M429.568,20.866h0.456l0.048,0.888h0.036c0.587-0.588,1.187-1.031,1.979-1.031
			c1.188,0,1.739,0.72,1.739,2.206v3.694h-0.528v-3.622c0-1.224-0.384-1.799-1.319-1.799c-0.684,0-1.175,0.359-1.883,1.079v4.342
			h-0.527V20.866z"/>
		<path fill="#E5E5E5" d="M436.647,19.007c0-0.3,0.216-0.479,0.479-0.479c0.265,0,0.48,0.18,0.48,0.479
			c0,0.276-0.216,0.468-0.48,0.468C436.863,19.475,436.647,19.283,436.647,19.007z M436.852,20.866h0.527v5.757h-0.527V20.866z"/>
		<path fill="#E5E5E5" d="M440.5,20.866h0.456l0.048,0.888h0.036c0.587-0.588,1.187-1.031,1.979-1.031
			c1.188,0,1.739,0.72,1.739,2.206v3.694h-0.528v-3.622c0-1.224-0.384-1.799-1.319-1.799c-0.684,0-1.175,0.359-1.883,1.079v4.342
			H440.5V20.866z"/>
		<path fill="#E5E5E5" d="M448.156,26.407v-0.048c-0.288-0.168-0.504-0.479-0.504-0.924c0-0.516,0.372-0.875,0.623-1.056v-0.048
			c-0.359-0.312-0.719-0.888-0.719-1.583c0-1.188,0.899-2.026,2.026-2.026c0.312,0,0.576,0.071,0.756,0.144h1.955v0.443h-1.344
			c0.372,0.324,0.636,0.84,0.636,1.451c0,1.176-0.876,2.027-2.003,2.027c-0.324,0-0.695-0.084-0.959-0.24
			c-0.252,0.204-0.468,0.444-0.468,0.828c0,0.42,0.239,0.755,1.103,0.755h1.235c1.296,0,1.896,0.408,1.896,1.319
			c0,0.996-1.067,1.943-2.723,1.943c-1.451,0-2.362-0.624-2.362-1.595C447.305,27.295,447.628,26.791,448.156,26.407z
			 M449.727,28.962c1.296,0,2.123-0.731,2.123-1.451c0-0.636-0.468-0.876-1.331-0.876h-1.235c-0.12,0-0.42-0.023-0.72-0.096
			c-0.527,0.359-0.756,0.804-0.756,1.211C447.808,28.47,448.504,28.962,449.727,28.962z M451.07,22.749
			c0-0.972-0.672-1.595-1.487-1.595s-1.499,0.611-1.499,1.595c0,0.972,0.695,1.619,1.499,1.619
			C450.375,24.368,451.07,23.721,451.07,22.749z"/>
		<path fill="#E5E5E5" d="M457.815,20.866h0.456l0.048,0.888h0.036c0.516-0.588,1.175-1.031,1.811-1.031
			c0.924,0,1.392,0.468,1.595,1.175c0.66-0.72,1.296-1.175,1.955-1.175c1.151,0,1.728,0.72,1.728,2.206v3.694h-0.54v-3.622
			c0-1.224-0.407-1.799-1.283-1.799c-0.54,0-1.092,0.359-1.727,1.079v4.342h-0.528v-3.622c0-1.224-0.407-1.799-1.295-1.799
			c-0.516,0-1.092,0.359-1.728,1.079v4.342h-0.527V20.866z"/>
		<path fill="#E5E5E5" d="M471.853,23.013c0.024-0.875-0.228-1.822-1.354-1.822c-0.78,0-1.451,0.384-1.835,0.671l-0.24-0.396
			c0.408-0.288,1.199-0.743,2.135-0.743c1.367,0,1.823,0.983,1.823,2.219v3.682h-0.444l-0.06-0.743h-0.024
			c-0.587,0.468-1.283,0.887-2.038,0.887c-0.912,0-1.68-0.491-1.68-1.583C468.135,23.912,469.299,23.301,471.853,23.013z
			 M469.898,26.312c0.659,0,1.247-0.324,1.954-0.936v-1.955c-2.362,0.275-3.166,0.827-3.166,1.739
			C468.687,25.987,469.238,26.312,469.898,26.312z"/>
		<path fill="#E5E5E5" d="M475.875,27.127v2.099h-0.527v-8.359h0.456l0.048,0.72h0.036c0.563-0.444,1.247-0.863,1.954-0.863
			c1.535,0,2.303,1.151,2.303,2.938c0,1.954-1.187,3.105-2.542,3.105c-0.54,0-1.128-0.264-1.728-0.707V27.127z M477.578,26.299
			c1.163,0,2.003-1.079,2.003-2.638c0-1.416-0.504-2.471-1.823-2.471c-0.575,0-1.187,0.335-1.883,0.947v3.418
			C476.535,26.096,477.135,26.299,477.578,26.299z"/>
		<path fill="#E5E5E5" d="M482.872,25.676c0.264,0,0.504,0.204,0.504,0.552c0,0.336-0.24,0.539-0.504,0.539
			s-0.516-0.203-0.516-0.539C482.356,25.88,482.608,25.676,482.872,25.676z"/>
		<path fill="#E5E5E5" d="M253.424,28.123v-0.6h44.147v0.6H253.424z"/>
	</g>
</g>
<g id="Option_2">
</g>
</svg>
